<?xml version="1.0" standalone="no"?>
<!DOCTYPE svg PUBLIC "-//W3C//DTD SVG 1.1//EN" "http://www.w3.org/Graphics/SVG/1.1/DTD/svg11.dtd" >
<svg xmlns="http://www.w3.org/2000/svg">
<metadata></metadata>
<defs>
<font id="aubreyregular" horiz-adv-x="827" >
<font-face units-per-em="2048" ascent="1638" descent="-410" />
<missing-glyph horiz-adv-x="381" />
<glyph horiz-adv-x="0" />
<glyph unicode="&#xd;" horiz-adv-x="0" />
<glyph unicode=" "  horiz-adv-x="381" />
<glyph unicode="&#x09;" horiz-adv-x="381" />
<glyph unicode="&#xa0;" horiz-adv-x="381" />
<glyph unicode="!" horiz-adv-x="427" d="M103 1262h185v-928h-144v796zM130 0v172h172v-172h-172z" />
<glyph unicode="&#x22;" horiz-adv-x="593" d="M100 922v340h131v-340h-131zM362 922v340h131v-340h-131z" />
<glyph unicode="#" horiz-adv-x="938" d="M61 432l23 109h184l45 219h-184l22 108h185l80 394h96l-80 -394h164l80 394h98l-80 -394h184l-22 -108h-184l-46 -219h185l-23 -109h-182l-90 -432h-98l90 432h-164l-90 -432h-97l91 432h-187zM366 541h164l43 219h-162z" />
<glyph unicode="$" d="M75 49l59 129q60 -35 123.5 -51t120.5 -16q60 0 105.5 14.5t87.5 40.5v141q0 43 -23.5 81.5t-58.5 72t-75.5 63.5t-74.5 56q-49 37 -94 76t-79.5 85t-55.5 100t-21 122q0 65 18 117.5t51 91.5t80 64.5t105 37.5v188h140v-182q63 -3 113.5 -17t101.5 -40l-62 -121 q-57 26 -105 37.5t-91 11.5q-46 0 -84 -13t-65.5 -37t-42.5 -58t-15 -76q0 -47 17 -85t44 -71t62 -61.5t71 -55.5q72 -54 125.5 -99t89.5 -88t54 -87.5t18 -95.5v-88l59 -113q-66 -54 -137.5 -87.5t-152.5 -47.5v-221h-140v213q-26 1 -59 5t-68.5 12t-71.5 20.5t-69 31.5z " />
<glyph unicode="%" horiz-adv-x="1154" d="M80 859v38v156v38t4 46t14 48.5t29 45.5q16 18 35 28t37.5 15t36.5 6.5t32 1.5q15 0 33 -1.5t37 -6.5t37.5 -15t34.5 -28q19 -21 29 -45.5t14.5 -48.5t5 -46t0.5 -38v-156q0 -17 -0.5 -39t-5 -46t-14.5 -48t-29 -45q-16 -18 -34.5 -28t-37.5 -15t-37 -6.5t-33 -1.5 q-14 0 -32 1t-36.5 6.5t-37.5 15.5t-35 28q-19 21 -29 45.5t-14 48.5t-4 46zM190 887q0 -15 1 -33.5t8.5 -35t23.5 -27.5t45 -11q30 0 45 11.5t21.5 28t7 35t0.5 32.5v176q0 14 -0.5 32.5t-7 35t-21.5 27.5t-45 11t-45.5 -11.5t-23 -28t-8.5 -34.5t-1 -32v-176zM289 23 l452 1259l123 -43l-452 -1259zM696 171v38v156v37.5t4 45.5t14 48.5t29 46.5q17 18 35.5 28t37.5 15t36.5 6.5t32.5 1.5t33 -1.5t36.5 -6.5t37 -15t34.5 -28q19 -22 29 -46.5t14.5 -48.5t5 -45.5t0.5 -37.5v-156q0 -17 -0.5 -39t-5 -46t-14.5 -48t-29 -45q-16 -18 -34.5 -28 t-37 -15t-36.5 -6.5t-33 -1.5q-14 0 -32 1t-37 6.5t-38 15.5t-35 28q-19 21 -29 45.5t-14 48.5t-4 46zM807 199q0 -15 1 -34t8.5 -35t23 -27t45.5 -11q29 0 44 11.5t21.5 28t7 35t0.5 32.5v176q0 14 -0.5 32.5t-7 35t-21.5 27.5t-44 11q-30 0 -46 -11t-23 -27.5t-8 -35 t-1 -32.5v-176z" />
<glyph unicode="&#x26;" horiz-adv-x="944" d="M65 387q0 63 12.5 114.5t34.5 93t52 73t65 55.5v407l-41 132h582v-132h-397v-350q26 6 52 9.5t52 3.5h125v-131h-123q-65 0 -114.5 -20t-83 -56.5t-51 -88t-17.5 -114.5q0 -62 18.5 -112.5t56 -86t93 -54.5t129.5 -19q54 0 100.5 11.5t81.5 37.5v207h-153v131h297v-273 l73 -94q-35 -37 -81.5 -65t-98.5 -47t-107.5 -29t-107.5 -10q-116 0 -200.5 28.5t-139.5 81.5t-82 128t-27 169z" />
<glyph unicode="'" horiz-adv-x="331" d="M100 922v340h131v-340h-131z" />
<glyph unicode="(" horiz-adv-x="495" d="M87 520q0 85 9.5 180t37 198t78 214.5t131.5 230.5l112 -73q-72 -100 -117.5 -204.5t-71 -203.5t-35 -187t-9.5 -155q0 -68 9.5 -155t35 -185t71 -201.5t117.5 -203.5l-112 -76q-81 119 -131 230.5t-78 214.5t-37.5 197t-9.5 179z" />
<glyph unicode=")" horiz-adv-x="496" d="M41 -225q72 100 117.5 203.5t71 201.5t35 185t9.5 155q0 67 -9.5 155t-35 187t-71 203.5t-117.5 204.5l112 73q81 -119 131.5 -230.5t78 -214.5t37 -198t9.5 -180t-9.5 -179t-37.5 -197t-78 -214.5t-131 -230.5z" />
<glyph unicode="*" horiz-adv-x="854" d="M62 940l43 141l258 -98l-9 279h146l-10 -277l258 96l43 -141l-269 -74l179 -219l-117 -88l-158 229l-154 -229l-116 88l172 217z" />
<glyph unicode="+" horiz-adv-x="822" d="M64 662v131h278v299h138v-299h278v-131h-278v-300h-138v300h-278z" />
<glyph unicode="," horiz-adv-x="355" d="M67 -123q13 6 29 15t30 22t23 31t9 42q0 3 -0.5 6.5t-0.5 6.5l-84 172h186v-172q0 -78 -38.5 -129t-106.5 -80z" />
<glyph unicode="-" horiz-adv-x="804" d="M113 434v144h578v-144h-578z" />
<glyph unicode="." horiz-adv-x="361" d="M95 0v172h172v-172h-172z" />
<glyph unicode="/" horiz-adv-x="812" d="M44 -389l600 1671l123 -43l-600 -1671z" />
<glyph unicode="0" horiz-adv-x="971" d="M130 94v735q0 98 17 181t57.5 143.5t107.5 94.5t166 34t165.5 -34t107 -94.5t58 -143.5t17.5 -181v-589l68 -95q-31 -29 -71 -58.5t-91.5 -53t-114.5 -38.5t-139 -15q-69 0 -124 11.5t-97.5 28.5t-74 37t-52.5 37zM273 174q79 -63 205 -63q127 0 205 63v655 q0 70 -9.5 129t-32.5 102t-62.5 67t-100.5 24t-100.5 -24t-63 -67t-32.5 -102t-9 -129v-655z" />
<glyph unicode="1" horiz-adv-x="435" d="M104 1262h187v-1262h-144v1128z" />
<glyph unicode="2" horiz-adv-x="766" d="M34 0l428 770q31 56 45.5 101t14.5 96q0 40 -12.5 73.5t-37.5 58t-61 38.5t-84 14q-40 0 -87.5 -11.5t-98.5 -37.5l-51 121q57 31 114.5 45t131.5 14q76 0 137 -22.5t104 -63.5t65.5 -100.5t22.5 -132.5q0 -38 -8 -73.5t-21 -70t-30 -68t-35 -67.5l-309 -553h411v-131 h-639z" />
<glyph unicode="3" horiz-adv-x="746" d="M81 111q96 30 176.5 68.5t138.5 87.5t90.5 109t32.5 134q0 31 -9 59t-30 48.5t-55.5 32.5t-85.5 12h-195l275 468h-328v132h561l-274 -469q66 0 118.5 -18.5t89.5 -54t56.5 -87.5t19.5 -119q0 -106 -42 -189.5t-114 -149t-168 -114t-204 -84.5z" />
<glyph unicode="4" horiz-adv-x="882" d="M69 1001v261h136v-261q0 -103 48.5 -155.5t151.5 -52.5h144v469h143v-469h102l39 -131h-141v-662h-143v662h-140q-81 0 -144 23t-106.5 66.5t-66.5 106.5t-23 143z" />
<glyph unicode="5" horiz-adv-x="765" d="M99 111q96 30 176.5 69t138.5 87.5t90.5 107t32.5 127.5q0 47 -13 78t-39 49t-66.5 25.5t-94.5 7.5h-199v600h394l133 43v-175h-396v-337h95q74 0 135 -15.5t104 -49.5t66.5 -86.5t23.5 -127.5q0 -102 -42 -185t-114 -149t-168 -116.5t-204 -86.5z" />
<glyph unicode="6" horiz-adv-x="844" d="M61 0l75 131v664q0 106 38 183t104 133.5t155 97t191 73.5l51 -131q-82 -31 -154 -57.5t-125.5 -63.5t-84.5 -92.5t-31 -144.5q55 -5 113 -15.5t112 -29.5t102 -49t84 -74t57 -104t21 -140q0 -89 -28 -159.5t-78 -119.5t-119.5 -75.5t-151.5 -26.5h-331zM280 131h82 q54 0 102 13.5t84 43.5t57 77.5t21 115.5q0 73 -27.5 124t-75 84t-110.5 50t-133 23v-531z" />
<glyph unicode="7" horiz-adv-x="693" d="M59 1130v132h606l-424 -1282l-131 43l367 1107h-418z" />
<glyph unicode="8" horiz-adv-x="917" d="M102 94v281q0 108 51.5 196t151.5 160q-76 56 -117 122t-41 153q0 60 22 111t61.5 87.5t93.5 57t118 20.5q59 0 113 -18.5t95 -54t65 -87t24 -116.5q0 -87 -40 -153t-116 -122q98 -72 156.5 -160.5t58.5 -195.5v-135l68 -95q-91 -85 -193.5 -125t-224.5 -40q-45 0 -92 7 t-92.5 21t-87 35.5t-74.5 50.5zM245 174q44 -35 98 -49t105 -14q56 0 110.5 14t96.5 49v148q0 118 -51 201t-156 143q-100 -60 -151.5 -143t-51.5 -201v-148zM290 1010q0 -35 11 -71t34 -65q10 -11 24 -23.5t29 -24.5t29 -22.5t25 -17.5q12 7 26 17.5t28.5 22.5t28 24.5 t23.5 23.5q26 29 37 65t11 71q0 32 -11.5 58t-32.5 44.5t-49 28.5t-61 10q-29 0 -56.5 -9.5t-48.5 -28t-34 -44.5t-13 -59z" />
<glyph unicode="9" horiz-adv-x="856" d="M91 662v260q0 81 24.5 144t69.5 106.5t109.5 66.5t144.5 23h277v-469l100 -131h-100q-1 -102 -21 -187t-54 -154.5t-80 -124t-99.5 -96.5t-113 -71.5t-120.5 -48.5l-53 133q82 23 153 65t124 108t84.5 158.5t35.5 217.5h-481zM234 793h338v337h-133q-205 0 -205 -204 v-133z" />
<glyph unicode=":" horiz-adv-x="409" d="M118 0v172h172v-172h-172zM118 750v172h172v-172h-172z" />
<glyph unicode=";" horiz-adv-x="445" d="M111 -123q13 6 29 15t30 22t23 31t9 42q0 3 -0.5 6t-0.5 7l-84 172h186v-172q0 -78 -38.5 -129t-106.5 -80zM143 750v172h173v-172h-173z" />
<glyph unicode="&#x3c;" horiz-adv-x="771" d="M63 662v131l536 333l78 -118l-448 -281l448 -281l-78 -118z" />
<glyph unicode="=" horiz-adv-x="917" d="M132 500v131h653v-131h-653zM132 823v131h653v-131h-653z" />
<glyph unicode="&#x3e;" horiz-adv-x="771" d="M94 446l448 281l-448 281l78 118l536 -333v-131l-536 -334z" />
<glyph unicode="?" horiz-adv-x="734" d="M52 1223q60 31 121 45t139 14q81 0 145.5 -23.5t109.5 -65t69 -99.5t24 -127q0 -52 -11.5 -94.5t-31 -77.5t-45 -65t-53.5 -58l-127 -125v-213h-143v270l164 158q20 19 38.5 41t33 47t23.5 54t9 63q0 39 -15 72.5t-42.5 58.5t-65.5 39t-84 14q-54 0 -101.5 -11.5 t-103.5 -37.5zM236 0v172h172v-172h-172z" />
<glyph unicode="@" horiz-adv-x="1099" d="M121 248v540q0 97 23 183.5t75 151t134 102t201 37.5q118 0 199 -33.5t130.5 -94.5t71.5 -145t22 -184v-535l52 -92q-57 -32 -134.5 -57t-170.5 -25t-158 35.5t-105.5 94t-58.5 135t-18 157.5t20.5 157.5t62 136t104 95t146.5 35.5q41 0 68.5 -6t56.5 -14 q-11 45 -29.5 85t-52 69.5t-85 47t-128.5 17.5q-87 0 -143.5 -30t-90.5 -79t-47.5 -111.5t-13.5 -127.5v-541q0 -65 12.5 -129t47 -114.5t94 -81.5t154.5 -31q55 0 109.5 10t105.5 33v-125q-51 -20 -107 -29.5t-114 -9.5q-119 0 -201 37.5t-134 101.5t-75 150t-23 184z M523 518q0 -51 8.5 -104t31.5 -96.5t63 -71t102 -27.5q29 0 61 7.5t55 21.5v545q-15 9 -44.5 17.5t-71.5 8.5q-59 0 -98.5 -28t-63 -71.5t-33.5 -97t-10 -104.5z" />
<glyph unicode="A" horiz-adv-x="915" d="M74 -2l164 1259q34 9 67 14t62 7.5t52 3t38 0.5q31 0 91.5 -4t130.5 -21l161 -1259l-141 -18l-88 682h-307l-88 -682zM320 793h271l-41 348q-20 5 -44 7.5t-49 2.5q-24 0 -48 -2.5t-44 -7.5z" />
<glyph unicode="B" horiz-adv-x="926" d="M100 1208q69 35 141.5 54.5t141.5 19.5q80 0 138 -26t95.5 -71.5t55.5 -107t18 -133.5v-221q36 -23 66 -55t51.5 -74t34 -95t12.5 -118q-2 -92 -27 -166t-74 -126t-122.5 -80.5t-171.5 -28.5q-43 0 -87 6t-85 18t-77.5 29.5t-64.5 40.5v1026zM289 160q35 -26 81.5 -37.5 t100.5 -11.5q58 0 102.5 19t74 54.5t44.5 86t15 112.5q0 63 -17.5 114.5t-51.5 88t-84 56.5t-114 20h-151v-502zM289 793h153q50 0 105 -11v160q0 40 -8.5 78t-27.5 67t-50 46.5t-76 17.5q-60 0 -96 -16v-342z" />
<glyph unicode="C" horiz-adv-x="853" d="M63 145l74 95v548q0 102 17.5 191.5t61.5 157t119.5 106.5t192.5 39q74 0 131.5 -14t114.5 -45l-51 -121q-54 26 -101.5 37.5t-89.5 11.5q-81 0 -130.5 -28.5t-76.5 -77.5t-36 -114t-9 -138v-619q57 -35 114.5 -49t129.5 -14q34 0 63 3t55.5 9.5t53 18.5t56.5 30l59 -129 q-54 -28 -127.5 -45.5t-167.5 -17.5q-37 0 -89.5 5.5t-113 22.5t-125 50t-125.5 87z" />
<glyph unicode="D" horiz-adv-x="989" d="M106 1229q49 23 120 38t156 15q130 0 225 -51t156.5 -138.5t91 -204t29.5 -247.5q0 -141 -31.5 -259t-100.5 -203t-178.5 -132t-265.5 -47h-163v1116zM288 131h41q115 0 194 38t127.5 106t69.5 161.5t21 204.5q0 126 -26 221.5t-73 159.5t-113 96.5t-145 32.5 q-28 0 -52.5 -2.5t-43.5 -7.5v-1010z" />
<glyph unicode="E" horiz-adv-x="767" d="M77 201l74 94v835l-41 132h581v-132h-397v-337h266v-131h-266v-445q46 -31 92 -51.5t94.5 -32.5t100.5 -17t110 -5l-10 -131q-99 0 -186.5 17.5t-163 47.5t-139.5 70.5t-115 85.5z" />
<glyph unicode="F" horiz-adv-x="759" d="M106 1262h611v-132h-426v-337h266v-131h-266v-662h-144v1130z" />
<glyph unicode="G" horiz-adv-x="959" d="M63 145l74 95v548q0 102 17.5 191.5t61.5 157t119.5 106.5t192.5 39q74 0 131.5 -14t114.5 -45l-51 -121q-54 26 -101.5 37.5t-89.5 11.5q-81 0 -130.5 -28.5t-76.5 -77.5t-36 -114t-9 -138v-619q56 -35 111.5 -49t124.5 -14q66 0 111.5 12t87.5 35v424h143v-521 q-42 -20 -81.5 -35t-81.5 -25.5t-87.5 -15.5t-99.5 -5q-36 0 -87.5 5.5t-111 22.5t-123 50t-123.5 87z" />
<glyph unicode="H" horiz-adv-x="1001" d="M144 0v1262h144v-469h426v469h143v-1262h-143v662h-426v-662h-144z" />
<glyph unicode="I" horiz-adv-x="432" d="M144 0v1262h144v-1262h-144z" />
<glyph unicode="J" horiz-adv-x="549" d="M39 102q54 30 104.5 76t79.5 101t41 134.5t12 194.5v522h-170l-41 132h355v-707q0 -42 -1.5 -89t-10.5 -96.5t-27 -100.5t-51.5 -101t-84 -97.5t-124.5 -90.5z" />
<glyph unicode="K" horiz-adv-x="891" d="M144 0v1262h144v-1262h-144zM323 662q2 102 33.5 201t89 182.5t139.5 145.5t186 91l51 -127q-60 -13 -116.5 -48t-102.5 -84t-78 -108.5t-43 -121.5l387 -748l-125 -65l-352 682h-69z" />
<glyph unicode="L" horiz-adv-x="768" d="M144 0v1262h144v-1131h444v-131h-588z" />
<glyph unicode="M" horiz-adv-x="1225" d="M115 -20l76 1138l-64 47l86 117q141 -91 238 -215.5t162 -292.5q59 157 155 282t244 226l86 -117l-64 -45l76 -1132h-141l-68 1005q-42 -53 -75 -105t-59.5 -107t-48 -114t-40.5 -126h-133q-18 63 -38 120t-45.5 112t-59 109t-78.5 111l-68 -1013h-141z" />
<glyph unicode="N" horiz-adv-x="1016" d="M90 1141l27 141q89 -12 174.5 -40.5t163.5 -74t147.5 -108t126.5 -141.5v344h143v-1262h-143l-2 645q-78 153 -181.5 265.5t-242.5 179.5v-1090h-143v1124q-16 5 -34 9.5t-36 7.5z" />
<glyph unicode="O" horiz-adv-x="1023" d="M129 94v715q0 97 19 183.5t63 150.5t116.5 101.5t180.5 37.5q107 0 179.5 -37.5t117 -101.5t63.5 -150.5t19 -183.5v-569l73 -95q-34 -29 -78 -58.5t-99.5 -53t-124 -38.5t-150.5 -15q-75 0 -135 11.5t-106.5 28.5t-80.5 37t-57 37zM272 174q48 -32 104.5 -47.5 t131.5 -15.5t132 15.5t103 47.5v635q0 62 -9 123.5t-35 110t-72 78.5t-119 30q-74 0 -120 -30t-72 -78.5t-35 -110t-9 -123.5v-635z" />
<glyph unicode="P" horiz-adv-x="894" d="M95 1206q38 17 84 31t94 24t95 15.5t88 5.5q85 0 157 -26t117 -72q35 -36 54 -75.5t27.5 -79.5t9.5 -80.5t1 -78.5v-208h-528v-662h-143v1094zM294 793h389v75q0 22 -1 48.5t-6 54.5t-17 56.5t-33 53.5t-45 39t-47.5 21t-45.5 8.5t-40 1.5q-41 0 -84.5 -6.5t-69.5 -18.5 v-333z" />
<glyph unicode="Q" horiz-adv-x="1017" d="M121 473v336q0 97 19 183.5t63 150.5t116.5 101.5t180.5 37.5q107 0 179.5 -37.5t117 -101.5t63.5 -150.5t19 -183.5v-678l104 -131h-483q-108 0 -180.5 37.5t-116.5 101.5t-63 150t-19 184zM264 473q0 -62 9 -123.5t35 -110t72 -78.5t120 -30h235v678q0 62 -9 123.5 t-35 110t-72 78.5t-119 30q-74 0 -120 -30t-72 -78.5t-35 -110t-9 -123.5v-336z" />
<glyph unicode="R" horiz-adv-x="947" d="M94 1206q78 34 165.5 55t168.5 21q88 0 161 -23.5t124 -68.5q37 -33 58.5 -69t32.5 -74t14 -77t3 -77v-231h-198l268 -625l-133 -57l-295 682h-170v-662h-143v1094zM293 793h389v69q0 23 -2 50.5t-8.5 55t-18 54t-30.5 47.5q-48 49 -97.5 65.5t-97.5 16.5q-84 0 -135 -25 v-333z" />
<glyph unicode="S" horiz-adv-x="812" d="M81 49l59 129q60 -35 123.5 -51t120.5 -16q60 0 105.5 14.5t87.5 40.5v141q0 43 -23.5 81.5t-58.5 72t-75.5 63.5t-74.5 56q-48 37 -93.5 76t-80 85t-55.5 100t-21 122q0 77 25 136.5t71 100t110.5 61.5t142.5 21t139 -14t121 -45l-62 -121q-57 26 -105 37.5t-91 11.5 q-46 0 -84 -13t-65.5 -37t-42.5 -58t-15 -76q0 -47 17 -85t44 -71t62 -61.5t71 -55.5q72 -54 125.5 -99t89.5 -88t54 -87.5t18 -95.5v-88l59 -113q-85 -69 -182.5 -106t-208.5 -37q-23 0 -59 2t-78 9t-86 20.5t-84 37.5z" />
<glyph unicode="T" horiz-adv-x="803" d="M24 1262h737v-132h-287v-1130h-143v1130h-267z" />
<glyph unicode="U" horiz-adv-x="1043" d="M134 462v800h144v-744q0 -122 15.5 -199t53.5 -122q12 -14 29.5 -29.5t43 -28t58 -20.5t74.5 -8q48 0 97.5 13t97.5 38v1100h143v-1026l67 -115q-64 -48 -123 -76t-111 -42.5t-95.5 -18.5t-75.5 -4q-128 0 -215 44t-141 138q-21 36 -33.5 73.5t-19 75.5t-8 75.5 t-1.5 75.5z" />
<glyph unicode="V" horiz-adv-x="965" d="M63 1262l141 20l191 -1151q21 3 42 4.5t46 1.5q47 0 88 -6l190 1151l142 -20l-213 -1282q-60 15 -111 20.5t-96 5.5t-96 -5.5t-111 -20.5z" />
<glyph unicode="W" horiz-adv-x="1278" d="M55 1255l141 27l217 -1137q33 6 76 10.5t76 6.5v760h147v-760q17 -1 37.5 -2.5t41 -4t39.5 -5t34 -5.5l217 1137l141 -27l-243 -1275q-35 10 -79 19t-90.5 16t-91 11.5t-79.5 4.5q-36 0 -80.5 -4t-91 -11t-90.5 -16.5t-78 -19.5z" />
<glyph unicode="X" horiz-adv-x="917" d="M83 12l166 715l-166 512l142 43l160 -489h147l160 489l141 -43l-166 -512l166 -715l-141 -32l-158 682h-152l-157 -682z" />
<glyph unicode="Y" horiz-adv-x="831" d="M47 1260l143 22l17 -111q13 -83 23.5 -138.5t21 -92.5t21.5 -59t24 -37q27 -32 60 -41.5t59 -9.5t58.5 9.5t59.5 41.5q13 15 23.5 37t21 59t21.5 93t24 138l17 111l143 -22q-17 -113 -32 -195.5t-30.5 -142.5t-34.5 -101.5t-44 -70.5q-40 -47 -82.5 -66t-73.5 -25v-659 h-143v659q-32 6 -74 25t-82 66q-25 29 -44 70.5t-34.5 101.5t-30.5 142.5t-32 195.5z" />
<glyph unicode="Z" horiz-adv-x="869" d="M51 0l532 1130h-492v132h707l-534 -1131h534v-131h-747z" />
<glyph unicode="[" horiz-adv-x="686" d="M132 -301v1642h506v-127h-375v-1388h375v-127h-506z" />
<glyph unicode="\" horiz-adv-x="813" d="M46 1239l123 43l600 -1671l-123 -43z" />
<glyph unicode="]" horiz-adv-x="687" d="M49 -174h374v1388h-374v127h506v-1642h-506v127z" />
<glyph unicode="^" horiz-adv-x="932" d="M-61 883l456 458h131l455 -458l-94 -95l-426 431l-428 -431z" />
<glyph unicode="_" horiz-adv-x="970" d="M155 -168h660v-133h-660v133z" />
<glyph unicode="`" horiz-adv-x="475" d="M82 1247l94 94l217 -215l-94 -94z" />
<glyph unicode="a" d="M63 268q0 103 43.5 169t115 103.5t163.5 52t190 15.5q-5 67 -40.5 107t-88.5 61t-115.5 28t-121.5 9l10 129q57 0 115.5 -6t112.5 -21t101.5 -41t82.5 -66t55 -95t20 -129v-410l55 -94q-96 -54 -187.5 -77t-170.5 -23q-50 0 -90 6.5t-71.5 18t-55 26.5t-41.5 32 q-34 35 -58 87t-24 118zM202 283q0 -58 20 -93.5t51 -55t66.5 -26t67.5 -6.5q51 0 91 10t77 25v348q-33 0 -73 -2t-81.5 -9t-81 -20.5t-70 -35.5t-49 -55.5t-18.5 -79.5z" />
<glyph unicode="b" horiz-adv-x="899" d="M75 74l58 104v1034l-41 129h172v-423q43 12 81 18t84 6q95 0 166 -40.5t118.5 -107.5t71 -154t23.5 -179t-20.5 -179t-66.5 -154t-120 -107.5t-180 -40.5q-52 0 -101 8t-93 21t-82.5 30t-69.5 35zM264 135q31 -15 71 -24t78 -9q78 0 128.5 33t80 85t40.5 115.5t11 125.5 q0 61 -12.5 125t-43 115.5t-81 84.5t-125.5 33q-51 0 -88.5 -11.5t-58.5 -21.5v-651z" />
<glyph unicode="c" horiz-adv-x="734" d="M44 125l70 84v334q0 28 0.5 66t8 79.5t26 84t53.5 79.5q30 31 63.5 49t68 27t67.5 11.5t61 2.5q54 0 101.5 -8t92.5 -21l-34 -118q-39 11 -83 17.5t-81 6.5t-65 -7t-48.5 -17.5t-34 -22.5t-20.5 -22q-17 -22 -26 -49t-13.5 -54.5t-5 -54.5t-0.5 -49v-387q51 -28 102 -41 t111 -13q57 0 107.5 10.5t101.5 34.5v-129q-51 -20 -101 -29t-110 -9q-79 0 -143.5 14.5t-115.5 36t-89 47t-64 47.5z" />
<glyph unicode="d" horiz-adv-x="900" d="M91 461q0 92 23.5 179t70.5 154t118.5 107.5t166.5 40.5q48 0 85.5 -6t80.5 -18v294l-41 129h172v-1163l57 -104q-63 -37 -151.5 -65.5t-194.5 -28.5t-179.5 40.5t-119.5 107.5t-67 154t-21 179zM226 461q0 -62 11.5 -125.5t40.5 -115.5t79.5 -85t128.5 -33q39 0 79 9 t71 24v651q-22 10 -59 21.5t-88 11.5q-75 0 -125.5 -33t-81 -84.5t-43.5 -115.5t-13 -125z" />
<glyph unicode="e" horiz-adv-x="847" d="M44 125l70 84v334v35q0 29 2 63.5t9.5 71t23.5 72t44 67.5q28 31 58.5 49t61.5 27t60.5 11.5t55.5 2.5q25 0 55 -2.5t61 -11.5t61.5 -27t57.5 -49q32 -37 49 -79.5t24.5 -84t8 -79.5t0.5 -66v-119h-501v-268q48 -32 103 -43t103 -11q88 0 158.5 19.5t136.5 64.5v-137 q-63 -37 -135 -53t-157 -16q-131 0 -230 36.5t-180 108.5zM245 547h358q0 22 -0.5 48.5t-4 53.5t-11 53.5t-21.5 47.5q-7 10 -18.5 22t-28.5 22.5t-41 17.5t-55 7q-30 0 -53.5 -7t-41 -17.5t-29 -22.5t-18.5 -22q-14 -22 -21.5 -48t-10.5 -53.5t-3.5 -53.5t-0.5 -48z" />
<glyph unicode="f" horiz-adv-x="485" d="M64 1165q48 42 107 73t124.5 52t134.5 33.5t137 17.5l11 -122q-42 -3 -86.5 -9.5t-87 -17t-81.5 -24t-69 -31.5v-215h188v-123h-188v-799h-131v1073z" />
<glyph unicode="g" horiz-adv-x="867" d="M42 -297l70 104q48 -35 89 -57.5t80 -35.5t79.5 -18t87.5 -5q81 0 137.5 18t93.5 43v43q0 51 -9.5 89t-33 64t-64.5 39t-104 13h-240v281q-75 35 -114 106t-39 168v72q0 79 29 138.5t78.5 98.5t116 58.5t142.5 19.5q66 0 121 -9.5t99 -23t78 -28.5t57 -27l-47 -109v-170 q0 -75 -23 -136t-66.5 -103.5t-106 -66t-140.5 -23.5q-14 0 -29 1t-24 3v-127h108q63 0 124.5 -12t109.5 -42t78 -81t30 -129v-49l70 -84q-88 -79 -197 -118.5t-235 -39.5q-237 0 -406 135zM206 555q0 -44 14.5 -78.5t41.5 -58.5t64.5 -36.5t82.5 -12.5q94 0 149.5 52 t59.5 157v202q-35 16 -82 27.5t-107 11.5q-48 0 -89 -12.5t-71 -37t-46.5 -60.5t-16.5 -82v-72z" />
<glyph unicode="h" horiz-adv-x="898" d="M83 1341h172v-426q38 13 81.5 20t92.5 7q38 0 83 -5.5t88.5 -22.5t82 -49t63.5 -85q11 -23 18 -52t11.5 -71t6 -100.5t1.5 -140.5v-416h-131v420q0 67 -1 117.5t-5 88t-12 63.5t-21 46q-9 14 -24 29t-38.5 27t-55.5 20t-76 8q-51 0 -90.5 -8.5t-73.5 -22.5v-788h-131 v1212z" />
<glyph unicode="i" horiz-adv-x="382" d="M87 922h172v-922h-131v793zM120 1108v154h147v-154h-147z" />
<glyph unicode="j" horiz-adv-x="383" d="M-98 -328q76 40 121 81t68.5 93.5t30.5 121t7 163.5v662l-41 129h172v-791q0 -103 -10 -185.5t-41.5 -150.5t-90.5 -123.5t-157 -103.5zM121 1108v154h147v-154h-147z" />
<glyph unicode="k" horiz-adv-x="783" d="M83 1341h172v-1341h-131v1212zM284 444q10 84 42.5 163.5t85.5 146t124.5 115.5t158.5 73l45 -123q-106 -31 -186 -101.5t-117 -182.5l324 -482l-109 -73l-313 464h-55z" />
<glyph unicode="l" horiz-adv-x="457" d="M75 1341h172v-811q0 -84 5.5 -147.5t26 -114.5t61 -94t110.5 -86l-68 -108q-84 45 -136.5 97t-81 117.5t-38.5 147.5t-10 188v682z" />
<glyph unicode="m" horiz-adv-x="1208" d="M75 807q114 69 250 102t287 33q27 0 73.5 -2.5t100 -13.5t107.5 -33.5t96 -61.5q38 -37 60 -79.5t32.5 -87t13 -89.5t2.5 -88v-487h-129v416q0 38 -0.5 82.5t-7 88.5t-21 83.5t-42.5 68.5q-19 19 -45.5 34t-56 25t-59 15.5t-54.5 5.5v-819h-132v819q-72 0 -146 -13.5 t-140 -41.5v-764h-131v707z" />
<glyph unicode="n" horiz-adv-x="904" d="M81 848q27 16 62.5 33t80 30.5t97 22t114.5 8.5q39 0 84 -5.5t88.5 -22.5t81.5 -49t64 -85q10 -23 17 -52t11.5 -71t6.5 -100.5t2 -140.5v-416h-131v420q0 67 -1.5 117.5t-5.5 88t-12 64t-20 45.5q-9 14 -24 29t-38.5 27t-56 20t-76.5 8q-49 0 -89.5 -8.5t-74.5 -22.5 v-788h-131v748z" />
<glyph unicode="o" horiz-adv-x="883" d="M111 72v471q0 28 0.5 66.5t8 80t24.5 83.5t51 79q28 31 60 49t64.5 27t64 11.5t57.5 2.5t57 -2.5t63 -11.5t64 -27t61 -49q34 -37 51 -79t24.5 -84t8 -80t0.5 -66v-334l70 -84q-82 -72 -180 -108.5t-219 -36.5q-60 0 -110 8t-90.5 21t-73 29.5t-56.5 33.5zM242 156 q46 -32 100 -43t99 -11t98.5 11t99.5 43v391q0 22 -1 48.5t-4.5 53.5t-12 53t-23.5 48q-8 10 -20.5 22t-31 22.5t-44.5 17.5t-61 7t-61 -7t-45.5 -17.5t-32 -22.5t-19.5 -22q-15 -22 -23.5 -48t-12 -53t-4.5 -53.5t-1 -48.5v-391z" />
<glyph unicode="p" horiz-adv-x="901" d="M76 848q31 18 69.5 35t83 30t93.5 21t101 8q106 0 179.5 -40.5t119.5 -107.5t67 -154t21 -179t-23.5 -179t-71 -154t-118.5 -107.5t-166 -40.5q-48 0 -85.5 6t-80.5 18v-436h-131v1175zM265 135q22 -9 59 -21t88 -12q75 0 125.5 33t81 85t43 115.5t12.5 125.5 q0 61 -11 125t-40.5 115.5t-80 84.5t-128.5 33q-38 0 -78 -8.5t-71 -24.5v-651z" />
<glyph unicode="q" horiz-adv-x="901" d="M91 461q0 92 21 179t67 154t119.5 107.5t179.5 40.5q52 0 101 -8t93.5 -21.5t82.5 -30t70 -34.5l-58 -105v-1175h-131v436q-43 -12 -80.5 -18t-85.5 -6q-95 0 -166.5 40.5t-118.5 107.5t-70.5 154t-23.5 179zM227 461q0 -62 12.5 -125.5t43 -115.5t81 -85t125.5 -33 q51 0 88 12t59 21v651q-31 16 -71 24.5t-78 8.5q-78 0 -128.5 -33t-80 -84.5t-40.5 -115.5t-11 -125z" />
<glyph unicode="r" horiz-adv-x="551" d="M70 774q91 75 199 113t223 55l23 -123q-100 -15 -158.5 -34.5t-95.5 -39.5v-745h-131v682z" />
<glyph unicode="s" horiz-adv-x="779" d="M92 31v131q28 -12 57.5 -23t62.5 -19.5t71.5 -13t85.5 -4.5q57 0 103.5 12t74.5 33v41q0 31 -6 56t-20.5 46t-39.5 40t-63 39l-158 77q-34 16 -64.5 37t-53.5 50t-36.5 67.5t-13.5 89.5q0 57 20 103.5t58.5 79.5t93 51t123.5 18q88 0 160 -21t129 -53l-53 -114 q-58 30 -112.5 45.5t-123.5 15.5q-34 0 -63.5 -6t-51.5 -20.5t-35 -38.5t-13 -60q0 -28 9.5 -49t27 -38t40.5 -31t50 -27l135 -66q89 -44 140.5 -99.5t51.5 -137.5v-47l70 -84q-45 -41 -92.5 -66.5t-95.5 -40t-95 -19.5t-92 -5q-91 0 -160.5 14.5t-120.5 36.5z" />
<glyph unicode="t" horiz-adv-x="501" d="M66 1167h172v-245h194v-127h-194v-265v-46q0 -51 7 -108.5t38 -111.5q14 -24 37.5 -49t51 -49.5t57.5 -46t57 -37.5l-78 -102q-30 16 -61 36.5t-59.5 44.5t-54 50t-44.5 53q-28 39 -44 78t-24.5 78.5t-11 78.5t-2.5 78v561z" />
<glyph unicode="u" horiz-adv-x="905" d="M115 506v416h131v-420q0 -68 1.5 -119t5.5 -88.5t11.5 -63.5t20.5 -45q9 -14 24.5 -29t38.5 -27t55.5 -20t76.5 -8q49 0 89.5 8.5t74.5 22.5v789h131v-748l49 -100q-27 -16 -62.5 -33t-80 -30.5t-97.5 -22t-114 -8.5q-39 0 -84 5.5t-89 22.5t-82 48.5t-63 84.5 q-11 23 -18 52t-11.5 71.5t-6 101t-1.5 140.5z" />
<glyph unicode="v" horiz-adv-x="871" d="M45 915l129 27l153 -655q9 -36 20.5 -69.5t28.5 -59t42 -41t63 -15.5h9t9 2l195 838l129 -27l-184 -786l47 -94q-32 -22 -84 -38.5t-121 -16.5q-116 0 -182 67.5t-99 208.5z" />
<glyph unicode="w" horiz-adv-x="1136" d="M61 926l131 16l98 -645q8 -53 26 -89t44.5 -58.5t60.5 -33.5t74 -14v646h131v-646h14q24 0 51 3t51.5 7t43.5 9t27 10l125 811l131 -16l-121 -774l39 -97q-24 -13 -65.5 -26.5t-94.5 -24t-114 -17.5t-124 -7q-75 0 -145 9.5t-128 41t-98.5 89.5t-56.5 156z" />
<glyph unicode="x" horiz-adv-x="842" d="M72 4q10 51 24 116t37.5 130t58.5 124t87 99l-207 410l117 59l207 -407l72 36q37 18 60.5 45t40.5 69.5t29.5 104.5t26.5 152l127 -24q-12 -90 -27 -160.5t-37 -124.5t-52.5 -92.5t-73.5 -63.5l223 -440l-119 -60l-219 439l-72 -39q-47 -26 -76.5 -72t-48.5 -101.5 t-30 -114t-21 -109.5z" />
<glyph unicode="y" horiz-adv-x="869" d="M45 915l129 27l153 -655q9 -36 20.5 -69.5t28.5 -59t42 -41t63 -15.5h9t9 2l195 838l129 -27l-315 -1348l-128 30l89 383q-109 4 -173 71.5t-96 204.5z" />
<glyph unicode="z" horiz-adv-x="730" d="M51 0l397 795h-354v127h565l-399 -795h399v-127h-608z" />
<glyph unicode="{" horiz-adv-x="513" d="M38 457v127q51 11 79.5 32.5t41.5 53.5t15.5 75t2.5 99v133q0 78 17.5 136.5t49 102t74 74t92.5 51.5l58 -122q-36 -17 -65.5 -37.5t-50.5 -48t-32.5 -64.5t-11.5 -88v-137q0 -53 -3 -100t-16.5 -87.5t-40 -74.5t-73.5 -62q47 -28 73.5 -62t40 -74.5t16.5 -87t3 -99.5 v-138q0 -51 11.5 -88t32.5 -64.5t50.5 -47.5t65.5 -37l-58 -123q-50 21 -92.5 51.5t-74 74t-49 102.5t-17.5 136v134q0 55 -2.5 98.5t-15.5 75t-41.5 53t-79.5 33.5z" />
<glyph unicode="|" horiz-adv-x="398" d="M134 -432v1773h131v-1773h-131z" />
<glyph unicode="}" horiz-adv-x="513" d="M46 -178q36 17 65.5 37t50 47.5t32 64.5t11.5 88v138q0 53 3 99.5t16.5 87t40 74.5t73.5 62q-47 28 -73.5 62t-40 74.5t-16.5 87.5t-3 100v137q0 51 -11.5 88t-32 64.5t-50 48t-65.5 37.5l57 122q50 -21 92.5 -51.5t74 -74t49 -102t17.5 -136.5v-133q0 -55 2.5 -98.5 t16 -76t41.5 -53.5t80 -32v-127q-51 -12 -79.5 -33.5t-42 -53.5t-16 -75t-2.5 -98v-134q0 -77 -17.5 -136t-49 -102.5t-74 -74t-92.5 -51.5z" />
<glyph unicode="~" horiz-adv-x="996" d="M65 635q27 31 54 60t58 51.5t65.5 36.5t76.5 14q50 0 101.5 -20t99.5 -43.5t91 -43.5t76 -20q31 0 54 7.5t41.5 20.5t35 31.5t35.5 40.5l78 -92q-27 -31 -54.5 -57.5t-58.5 -46t-66.5 -31t-78.5 -11.5q-47 0 -93.5 20t-93 43.5t-92 43.5t-90.5 20q-30 0 -51.5 -7.5 t-39.5 -20.5t-34.5 -31.5t-35.5 -40.5z" />
<glyph unicode="&#xa1;" horiz-adv-x="403" d="M113 750v172h172v-172h-172zM128 -340v928h143v-797l41 -131h-184z" />
<glyph unicode="&#xa2;" horiz-adv-x="766" d="M59 125l70 84v334q0 28 0.5 66t8 79.5t26 84t53.5 79.5q37 38 79 57t87 25v174h131v-168q43 -2 81.5 -9.5t75.5 -17.5l-34 -118q-39 11 -83 17.5t-81 6.5t-65 -7t-48.5 -17.5t-34 -22.5t-20.5 -22q-17 -22 -26 -49t-13.5 -54.5t-5 -54.5t-0.5 -49v-387q51 -28 102 -41 t111 -13q57 0 107.5 10.5t101.5 34.5v-129q-81 -30 -168 -36v-191h-131v195q-60 7 -109.5 22.5t-90 35t-71.5 41t-53 40.5z" />
<glyph unicode="&#xa3;" horiz-adv-x="868" d="M61 793h106q0 100 17.5 189t62 156t120 105.5t191.5 38.5q74 0 131.5 -14t114.5 -45l-51 -121q-54 26 -101.5 37.5t-89.5 11.5q-81 0 -130.5 -28.5t-76.5 -77.5t-36 -114t-9 -138h269v-131h-269v-531h447l43 -131h-633v662h-65z" />
<glyph unicode="&#xa4;" horiz-adv-x="1186" d="M83 346l193 193q-35 51 -53.5 105.5t-18.5 117.5t18.5 117.5t53.5 105.5l-193 193l92 92l191 -191q100 72 227 72t227 -72l191 191l92 -92l-192 -193q69 -100 69 -223t-69 -223l192 -193l-92 -92l-191 190q-51 -37 -107.5 -54t-119.5 -17t-119.5 17t-107.5 54l-191 -190z M333 762q0 -53 20.5 -100t56 -82.5t82.5 -56.5t101 -21q53 0 100 21t82 56.5t55.5 82.5t20.5 100q0 54 -20 101t-55 82t-82 55t-101 20t-101 -20.5t-82.5 -55.5t-56 -82t-20.5 -100z" />
<glyph unicode="&#xa5;" horiz-adv-x="861" d="M62 1260l143 22l17 -111q13 -83 23.5 -138.5t21 -92.5t21.5 -59t24 -37q27 -32 60 -41.5t59 -9.5t58.5 9.5t59.5 41.5q13 15 23.5 37t21 59t21.5 93t24 138l17 111l143 -22q-17 -113 -32 -195.5t-30.5 -142.5t-34.5 -101.5t-44 -70.5q-40 -47 -82.5 -66t-73.5 -25v-139 h166v-110h-166v-101h166v-110h-166v-199h-143v199h-162v110h162v101h-162v110h162v139q-32 6 -74 25t-82 66q-25 29 -44 70.5t-34.5 101.5t-30.5 142.5t-32 195.5z" />
<glyph unicode="&#xa6;" horiz-adv-x="402" d="M136 246h131v-678h-131v678zM136 662v679h131v-679h-131z" />
<glyph unicode="&#xa7;" horiz-adv-x="830" d="M70 1194q26 22 63.5 47t88.5 47t115.5 36.5t143.5 14.5q60 0 111 -9.5t100 -29.5v-129q-51 25 -101.5 35.5t-107.5 10.5q-60 0 -111 -13t-102 -41v-237q17 2 35.5 3t38.5 1q28 0 60.5 -2.5t67 -11.5t68.5 -27t64 -49q36 -37 54 -79.5t25.5 -84.5t8 -80t0.5 -66v-374 l70 -84q-26 -23 -64 -48.5t-89 -47.5t-115.5 -36t-143.5 -14q-58 0 -109 9.5t-102 29.5v129q51 -25 101.5 -35t107.5 -10q60 0 111 13t102 40v238q-18 -3 -36.5 -3.5t-36.5 -0.5q-28 0 -61.5 2.5t-68 11.5t-68 27t-63.5 49q-35 37 -53.5 79t-26 83.5t-8 79.5t-0.5 67v375z M270 735q0 -23 0.5 -49.5t5 -54.5t14 -54.5t26.5 -48.5q7 -10 20.5 -22t33.5 -22.5t48 -17.5t65 -7q36 0 78 6v65q0 22 -0.5 49.5t-4.5 55.5t-13.5 54.5t-26.5 47.5q-8 10 -21.5 22.5t-33.5 23t-48 17.5t-65 7q-38 0 -78 -6v-66z" />
<glyph unicode="&#xa8;" horiz-adv-x="582" d="M82 1108v154h147v-154h-147zM352 1108v154h148v-154h-148z" />
<glyph unicode="&#xa9;" horiz-adv-x="1245" d="M135 127v1008q30 21 77 47t108.5 48t137 37t164.5 15t165 -15t137.5 -37t108.5 -48t77 -47v-1008q-30 -21 -77 -47t-108.5 -48t-137.5 -37t-165 -15t-164.5 15t-137 37t-108.5 48t-77 47zM223 178q36 -25 80.5 -45t95.5 -33.5t106.5 -20.5t112.5 -7q118 0 220.5 27.5 t174.5 78.5v905q-72 51 -174.5 79t-220.5 28q-115 0 -219 -28.5t-176 -78.5v-905zM327 352l58 68v325q1 24 4.5 50t11 52t21 51t34.5 46q25 25 52.5 40t55 22.5t54 9.5t49.5 2q45 0 84 -6.5t76 -16.5l-29 -98q-31 9 -67.5 15t-65.5 6q-30 0 -53 -6t-39.5 -14.5t-27.5 -18.5 t-17 -19q-20 -27 -27.5 -60t-9.5 -68v-355q42 -23 83.5 -33t90.5 -10q48 0 88 8.5t82 28.5v-107q-40 -15 -82 -23t-90 -8q-65 0 -117.5 11.5t-93.5 29.5t-72 39t-53 39z" />
<glyph unicode="&#xaa;" horiz-adv-x="591" d="M71 856q0 67 25.5 109.5t67 66.5t94 33t106.5 10q-4 29 -24.5 48.5t-49.5 31t-63.5 17t-65.5 6.5l11 104q54 0 109.5 -9.5t99.5 -34.5t72 -70t28 -115v-269l33 -53q-60 -35 -117.5 -49t-108.5 -14q-66 0 -104 16t-60 39q-23 22 -38 56t-15 77zM182 868q0 -27 9.5 -44 t24 -27t32 -13.5t34.5 -3.5q25 0 44 5t38 12v172q-24 0 -55 -2.5t-59.5 -13t-48 -30.5t-19.5 -55z" />
<glyph unicode="&#xab;" horiz-adv-x="686" d="M95 518v131l272 273l94 -95l-243 -243l243 -244l-94 -94zM349 584l178 178l94 -94l-84 -84l84 -84l-94 -94z" />
<glyph unicode="&#xac;" horiz-adv-x="850" d="M75 823v131h653v-340h-127v209h-526z" />
<glyph unicode="&#xad;" horiz-adv-x="804" d="M113 434v144h578v-144h-578z" />
<glyph unicode="&#xae;" horiz-adv-x="1245" d="M135 127v1008q30 21 77 47t108.5 48t137 37t164.5 15t165 -15t137.5 -37t108.5 -48t77 -47v-1008q-30 -21 -77 -47t-108.5 -48t-137.5 -37t-165 -15t-164.5 15t-137 37t-108.5 48t-77 47zM223 178q36 -25 80.5 -45t95.5 -33.5t106.5 -20.5t112.5 -7q118 0 220.5 27.5 t174.5 78.5v905q-72 51 -174.5 79t-220.5 28q-115 0 -219 -28.5t-176 -78.5v-905zM370 969q54 21 110.5 35t113.5 14q76 0 122.5 -23t72 -58t34 -76t8.5 -77v-161h-121l158 -347l-96 -43l-178 390h-82v-377h-107v647zM512 723h213v39q0 75 -34 115.5t-106 40.5 q-44 0 -73 -13v-182z" />
<glyph unicode="&#xaf;" horiz-adv-x="680" d="M82 1135v127h516v-127h-516z" />
<glyph unicode="&#xb0;" horiz-adv-x="529" d="M75 1151q0 40 9.5 74.5t31 60t57.5 40.5t90 15q94 0 142.5 -46.5t48.5 -143.5q0 -38 -10 -72.5t-32.5 -60t-59 -40.5t-89.5 -15q-87 0 -137.5 47t-50.5 141zM186 1153q0 -34 16.5 -55t58.5 -21t59 21t17 55q0 32 -17 54t-59 22t-58.5 -22t-16.5 -54z" />
<glyph unicode="&#xb1;" horiz-adv-x="928" d="M117 193v131h694v-131h-694zM117 662v131h278v299h138v-299h278v-131h-278v-218h-138v218h-278z" />
<glyph unicode="&#xb2;" horiz-adv-x="508" d="M75 688l182 350q9 19 16 35t7 35q0 28 -18.5 44.5t-53.5 16.5q-20 0 -39.5 -4.5t-44.5 -15.5l-37 96q32 19 69 28t72 9q84 0 128 -43t44 -119q0 -42 -14.5 -78t-34.5 -73l-90 -168h150v-113h-336z" />
<glyph unicode="&#xb3;" horiz-adv-x="477" d="M87 1149v113h307l-106 -199q24 -7 44 -18.5t34.5 -29t23 -42.5t8.5 -58q0 -53 -22 -92t-59 -68t-84 -50t-97 -37l-41 102q38 10 72 23.5t59.5 30.5t40 38t14.5 45q0 22 -13.5 38t-53.5 16h-94l98 188h-131z" />
<glyph unicode="&#xb4;" horiz-adv-x="475" d="M82 1126l217 215l94 -94l-217 -215z" />
<glyph unicode="&#xb6;" horiz-adv-x="940" d="M76 841v247q0 20 1.5 44t7.5 49.5t17.5 50.5t31.5 46q21 22 43.5 34.5t45.5 19t44.5 8t40.5 1.5h547v-131h-82v-1425h-144v1425h-139v-1425h-141v803h-41q-19 0 -40.5 1.5t-44.5 8t-45.5 19t-43.5 34.5q-21 21 -32.5 46t-17 50t-7 49.5t-1.5 44.5z" />
<glyph unicode="&#xb7;" horiz-adv-x="401" d="M115 537v172h172v-172h-172z" />
<glyph unicode="&#xb8;" horiz-adv-x="563" d="M82 -205q51 -21 101 -35t98 -14q14 0 27.5 2t24 7.5t17 14.5t6.5 23q0 26 -19 37.5t-61 11.5h-106v158h123v-61h8q85 0 132.5 -35.5t47.5 -110.5q0 -41 -17 -69.5t-45 -45.5t-64 -24.5t-74 -7.5q-60 0 -110.5 11t-88.5 28v110z" />
<glyph unicode="&#xb9;" horiz-adv-x="356" d="M80 1262h160v-574h-117v440z" />
<glyph unicode="&#xba;" horiz-adv-x="574" d="M98 859v38v156v38t4 46t14 48.5t29 45.5q16 18 35 28t37.5 15t36.5 6.5t32 1.5q15 0 33 -1.5t37 -6.5t37.5 -15t34.5 -28q19 -21 29 -45.5t14.5 -48.5t5 -46t0.5 -38v-156q0 -17 -0.5 -39t-5 -46t-14.5 -48t-29 -45q-16 -18 -34.5 -28t-37.5 -15t-37 -6.5t-33 -1.5 q-14 0 -32 1t-36.5 6.5t-37.5 15.5t-35 28q-19 21 -29 45.5t-14 48.5t-4 46zM208 887q0 -15 1 -33.5t8.5 -35t23.5 -27.5t45 -11q30 0 45 11.5t21.5 28t7 35t0.5 32.5v176q0 14 -0.5 32.5t-7 35t-21.5 27.5t-45 11t-45.5 -11.5t-23 -28t-8.5 -34.5t-1 -32v-176z" />
<glyph unicode="&#xbb;" horiz-adv-x="685" d="M64 500l84 84l-84 84l94 94l178 -178l-178 -178zM223 340l244 244l-244 243l95 95l272 -273v-131l-272 -272z" />
<glyph unicode="&#xbc;" horiz-adv-x="1260" d="M77 1262h160v-574h-117v440zM198 23l453 1259l123 -43l-453 -1259zM709 459v115h108v-97q0 -45 22.5 -68.5t65.5 -23.5h66v189h117v-189h90l30 -112h-120v-273h-117v273h-78q-90 0 -137 49t-47 137z" />
<glyph unicode="&#xbd;" horiz-adv-x="1056" d="M67 1262h160v-574h-117v440zM188 23l453 1259l123 -43l-453 -1259zM650 1l182 350q9 19 16 35t7 35q0 28 -18.5 44.5t-53.5 16.5q-20 0 -39.5 -4.5t-44.5 -15.5l-37 96q32 19 69 28t72 9q84 0 128 -43t44 -119q0 -42 -14.5 -78t-34.5 -73l-90 -168h150v-113h-336z" />
<glyph unicode="&#xbe;" horiz-adv-x="1312" d="M84 1149v113h307l-106 -199q24 -7 44 -18.5t34.5 -29t23 -42.5t8.5 -58q0 -53 -22 -92t-59 -68t-84 -50t-97 -37l-41 102q38 10 72 23.5t59.5 30.5t40 38t14.5 45q0 22 -13.5 38t-53.5 16h-94l98 188h-131zM249 23l453 1259l123 -43l-453 -1259zM759 460v115h108v-97 q0 -45 22.5 -68.5t65.5 -23.5h66v189h117v-189h90l30 -112h-120v-273h-117v273h-78q-90 0 -137 49t-47 137z" />
<glyph unicode="&#xbf;" horiz-adv-x="730" d="M72 -45q0 51 11.5 93.5t31 78t45 65.5t53.5 58l127 125v213h144v-271l-164 -157q-20 -20 -39 -41.5t-33.5 -46.5t-23.5 -54t-9 -63q0 -39 15 -73t42.5 -58.5t65.5 -38.5t84 -14q54 0 101.5 11.5t103.5 37.5l53 -121q-60 -31 -120.5 -45t-139.5 -14q-81 0 -145.5 23.5 t-109.5 65t-69 99.5t-24 127zM324 750v172h172v-172h-172z" />
<glyph unicode="&#xc0;" horiz-adv-x="915" d="M74 -2l164 1259q34 9 67 14t62 7.5t52 3t38 0.5q31 0 91.5 -4t130.5 -21l161 -1259l-141 -18l-88 682h-307l-88 -682zM302 1563l94 94l217 -215l-94 -94zM320 793h271l-41 348q-20 5 -44 7.5t-49 2.5q-24 0 -48 -2.5t-44 -7.5z" />
<glyph unicode="&#xc1;" horiz-adv-x="915" d="M74 -2l164 1259q34 9 67 14t62 7.5t52 3t38 0.5q31 0 91.5 -4t130.5 -21l161 -1259l-141 -18l-88 682h-307l-88 -682zM303 1442l217 215l94 -94l-217 -215zM320 793h271l-41 348q-20 5 -44 7.5t-49 2.5q-24 0 -48 -2.5t-44 -7.5z" />
<glyph unicode="&#xc2;" horiz-adv-x="915" d="M74 -2l164 1259q34 9 67 14t62 7.5t52 3t38 0.5q31 0 91.5 -4t130.5 -21l161 -1259l-141 -18l-88 682h-307l-88 -682zM179 1444l213 213h131l213 -213l-94 -94l-185 185l-184 -185zM320 793h271l-41 348q-20 5 -44 7.5t-49 2.5q-24 0 -48 -2.5t-44 -7.5z" />
<glyph unicode="&#xc3;" horiz-adv-x="915" d="M74 -2l164 1259q34 9 67 14t62 7.5t52 3t38 0.5q31 0 91.5 -4t130.5 -21l161 -1259l-141 -18l-88 682h-307l-88 -682zM159 1455q54 72 118 120.5t136 73.5l127 -125q24 10 43 25.5t35 33.5t28 36.5t21 33.5l90 -84q-51 -65 -112.5 -116.5t-141.5 -77.5l-127 125 q-24 -11 -43 -26t-35 -32.5t-28 -36t-21 -34.5zM320 793h271l-41 348q-20 5 -44 7.5t-49 2.5q-24 0 -48 -2.5t-44 -7.5z" />
<glyph unicode="&#xc4;" horiz-adv-x="915" d="M74 -2l164 1259q34 9 67 14t62 7.5t52 3t38 0.5q31 0 91.5 -4t130.5 -21l161 -1259l-141 -18l-88 682h-307l-88 -682zM249 1424v154h147v-154h-147zM320 793h271l-41 348q-20 5 -44 7.5t-49 2.5q-24 0 -48 -2.5t-44 -7.5zM519 1424v154h148v-154h-148z" />
<glyph unicode="&#xc5;" horiz-adv-x="915" d="M74 -2l164 1259q34 9 67 14t62 7.5t52 3t38 0.5q31 0 91.5 -4t130.5 -21l161 -1259l-141 -18l-88 682h-307l-88 -682zM267 1517q0 90 48 136t142 46t142.5 -46t48.5 -136q0 -91 -48.5 -138t-142.5 -47t-142 47t-48 138zM320 793h271l-41 348q-20 5 -44 7.5t-49 2.5 q-24 0 -48 -2.5t-44 -7.5zM382 1517q0 -32 17.5 -51t57.5 -19q42 0 59 19t17 51q0 31 -17 50t-59 19q-40 0 -57.5 -19t-17.5 -50z" />
<glyph unicode="&#xc6;" horiz-adv-x="1151" d="M74 -2l164 1259q34 9 67 14t62 7.5t52 3t38 0.5t36.5 -0.5t48.5 -2.5t57.5 -6t62.5 -11h408v-132h-377v-337h246v-131h-246v-531h377v-131h-520v662h-246l-88 -682zM320 793h230v348q-20 5 -44 7.5t-49 2.5q-24 0 -48 -2.5t-44 -7.5z" />
<glyph unicode="&#xc7;" horiz-adv-x="850" d="M62 145l74 95v548q0 102 17.5 191.5t61.5 157t119.5 106.5t192.5 39q74 0 131.5 -14t114.5 -45l-51 -121q-54 26 -101.5 37.5t-89.5 11.5q-81 0 -130.5 -28.5t-76.5 -77.5t-36 -114t-9 -138v-619q57 -35 114.5 -49t129.5 -14q34 0 63 3t55.5 9.5t53 18.5t56.5 30l59 -129 q-54 -28 -127.5 -45.5t-167.5 -17.5h-12v-41h8q85 0 132.5 -35.5t47.5 -110.5q0 -41 -17 -69.5t-45 -45.5t-64 -24.5t-75 -7.5q-58 0 -109 11t-89 28v110q51 -21 100.5 -35t97.5 -14q29 0 52.5 9.5t23.5 37.5q0 26 -19 37.5t-61 11.5h-106v150q-36 6 -75.5 17.5t-80 29.5 t-82 44t-80.5 62z" />
<glyph unicode="&#xc8;" horiz-adv-x="767" d="M77 201l74 94v835l-41 132h581v-132h-397v-337h266v-131h-266v-445q46 -31 92 -51.5t94.5 -32.5t100.5 -17t110 -5l-10 -131q-99 0 -186.5 17.5t-163 47.5t-139.5 70.5t-115 85.5zM211 1563l94 94l217 -215l-94 -94z" />
<glyph unicode="&#xc9;" horiz-adv-x="767" d="M77 201l74 94v835l-41 132h581v-132h-397v-337h266v-131h-266v-445q46 -31 92 -51.5t94.5 -32.5t100.5 -17t110 -5l-10 -131q-99 0 -186.5 17.5t-163 47.5t-139.5 70.5t-115 85.5zM256 1442l217 215l94 -94l-217 -215z" />
<glyph unicode="&#xca;" horiz-adv-x="767" d="M77 201l74 94v835l-41 132h581v-132h-397v-337h266v-131h-266v-445q46 -31 92 -51.5t94.5 -32.5t100.5 -17t110 -5l-10 -131q-99 0 -186.5 17.5t-163 47.5t-139.5 70.5t-115 85.5zM140 1444l213 213h131l213 -213l-94 -94l-185 185l-184 -185z" />
<glyph unicode="&#xcb;" horiz-adv-x="767" d="M77 201l74 94v835l-41 132h581v-132h-397v-337h266v-131h-266v-445q46 -31 92 -51.5t94.5 -32.5t100.5 -17t110 -5l-10 -131q-99 0 -186.5 17.5t-163 47.5t-139.5 70.5t-115 85.5zM211 1424v154h147v-154h-147zM481 1424v154h148v-154h-148z" />
<glyph unicode="&#xcc;" horiz-adv-x="432" d="M34 1563l94 94l217 -215l-94 -94zM144 0v1262h144v-1262h-144z" />
<glyph unicode="&#xcd;" horiz-adv-x="432" d="M101 1442l217 215l94 -94l-217 -215zM144 0v1262h144v-1262h-144z" />
<glyph unicode="&#xce;" horiz-adv-x="432" d="M-61 1444l213 213h131l213 -213l-94 -94l-185 185l-184 -185zM144 0v1262h144v-1262h-144z" />
<glyph unicode="&#xcf;" horiz-adv-x="432" d="M8 1424v154h147v-154h-147zM144 0v1262h144v-1262h-144zM278 1424v154h148v-154h-148z" />
<glyph unicode="&#xd0;" horiz-adv-x="997" d="M26 793h127v323l-39 113q49 23 120 38t156 15q130 0 225 -51t156.5 -138.5t91 -204t29.5 -247.5q0 -141 -31.5 -259t-100.5 -203t-178.5 -132t-265.5 -47h-163v662h-86zM296 131h41q115 0 194 38t127.5 106t69.5 161.5t21 204.5q0 126 -26 221.5t-73 159.5t-113 96.5 t-145 32.5q-28 0 -52.5 -2.5t-43.5 -7.5v-348h193v-131h-193v-531z" />
<glyph unicode="&#xd1;" horiz-adv-x="1016" d="M90 1141l27 141q89 -12 174.5 -40.5t163.5 -74t147.5 -108t126.5 -141.5v344h143v-1262h-143l-2 645q-78 153 -181.5 265.5t-242.5 179.5v-1090h-143v1124q-16 5 -34 9.5t-36 7.5zM205 1455q54 72 118 120.5t136 73.5l127 -125q24 10 43 25.5t35 33.5t28 36.5t21 33.5 l90 -84q-51 -65 -112.5 -116.5t-141.5 -77.5l-127 125q-24 -11 -43 -26t-35 -32.5t-28 -36t-21 -34.5z" />
<glyph unicode="&#xd2;" horiz-adv-x="1023" d="M129 94v715q0 97 19 183.5t63 150.5t116.5 101.5t180.5 37.5q107 0 179.5 -37.5t117 -101.5t63.5 -150.5t19 -183.5v-569l73 -95q-34 -29 -78 -58.5t-99.5 -53t-124 -38.5t-150.5 -15q-75 0 -135 11.5t-106.5 28.5t-80.5 37t-57 37zM272 174q48 -32 104.5 -47.5 t131.5 -15.5t132 15.5t103 47.5v635q0 62 -9 123.5t-35 110t-72 78.5t-119 30q-74 0 -120 -30t-72 -78.5t-35 -110t-9 -123.5v-635zM370 1563l94 94l217 -215l-94 -94z" />
<glyph unicode="&#xd3;" horiz-adv-x="1023" d="M129 94v715q0 97 19 183.5t63 150.5t116.5 101.5t180.5 37.5q107 0 179.5 -37.5t117 -101.5t63.5 -150.5t19 -183.5v-569l73 -95q-34 -29 -78 -58.5t-99.5 -53t-124 -38.5t-150.5 -15q-75 0 -135 11.5t-106.5 28.5t-80.5 37t-57 37zM272 174q48 -32 104.5 -47.5 t131.5 -15.5t132 15.5t103 47.5v635q0 62 -9 123.5t-35 110t-72 78.5t-119 30q-74 0 -120 -30t-72 -78.5t-35 -110t-9 -123.5v-635zM371 1442l217 215l94 -94l-217 -215z" />
<glyph unicode="&#xd4;" horiz-adv-x="1023" d="M129 94v715q0 97 19 183.5t63 150.5t116.5 101.5t180.5 37.5q107 0 179.5 -37.5t117 -101.5t63.5 -150.5t19 -183.5v-569l73 -95q-34 -29 -78 -58.5t-99.5 -53t-124 -38.5t-150.5 -15q-75 0 -135 11.5t-106.5 28.5t-80.5 37t-57 37zM244 1444l213 213h131l213 -213 l-94 -94l-185 185l-184 -185zM272 174q48 -32 104.5 -47.5t131.5 -15.5t132 15.5t103 47.5v635q0 62 -9 123.5t-35 110t-72 78.5t-119 30q-74 0 -120 -30t-72 -78.5t-35 -110t-9 -123.5v-635z" />
<glyph unicode="&#xd5;" horiz-adv-x="1023" d="M129 94v715q0 97 19 183.5t63 150.5t116.5 101.5t180.5 37.5q107 0 179.5 -37.5t117 -101.5t63.5 -150.5t19 -183.5v-569l73 -95q-34 -29 -78 -58.5t-99.5 -53t-124 -38.5t-150.5 -15q-75 0 -135 11.5t-106.5 28.5t-80.5 37t-57 37zM224 1455q54 72 118 120.5t136 73.5 l127 -125q24 10 43 25.5t35 33.5t28 36.5t21 33.5l90 -84q-51 -65 -112.5 -116.5t-141.5 -77.5l-127 125q-24 -11 -43 -26t-35 -32.5t-28 -36t-21 -34.5zM272 174q48 -32 104.5 -47.5t131.5 -15.5t132 15.5t103 47.5v635q0 62 -9 123.5t-35 110t-72 78.5t-119 30 q-74 0 -120 -30t-72 -78.5t-35 -110t-9 -123.5v-635z" />
<glyph unicode="&#xd6;" horiz-adv-x="1023" d="M129 94v715q0 97 19 183.5t63 150.5t116.5 101.5t180.5 37.5q107 0 179.5 -37.5t117 -101.5t63.5 -150.5t19 -183.5v-569l73 -95q-34 -29 -78 -58.5t-99.5 -53t-124 -38.5t-150.5 -15q-75 0 -135 11.5t-106.5 28.5t-80.5 37t-57 37zM272 174q48 -32 104.5 -47.5 t131.5 -15.5t132 15.5t103 47.5v635q0 62 -9 123.5t-35 110t-72 78.5t-119 30q-74 0 -120 -30t-72 -78.5t-35 -110t-9 -123.5v-635zM316 1424v154h147v-154h-147zM586 1424v154h148v-154h-148z" />
<glyph unicode="&#xd7;" horiz-adv-x="790" d="M88 516l211 213l-211 211l92 92l211 -211l213 211l96 -96l-211 -211l211 -213l-92 -92l-213 211l-211 -211z" />
<glyph unicode="&#xd8;" horiz-adv-x="1048" d="M-24 -145l154 239v715q0 97 19 183.5t63 150.5t116.5 101.5t180.5 37.5q106 0 178 -37t117 -100l127 196l108 -71l-172 -269q21 -89 21 -192v-569l73 -95q-34 -29 -78 -58.5t-99.5 -53t-124 -38.5t-150.5 -15q-85 0 -151 13.5t-115 35.5l-158 -248zM273 317l443 691 q-12 31 -30 57t-43 45t-58 30t-76 11q-74 0 -120 -30t-72 -78.5t-35 -110t-9 -123.5v-492zM318 147q42 -18 88 -27t103 -9q75 0 132 15.5t103 47.5v635z" />
<glyph unicode="&#xd9;" horiz-adv-x="1043" d="M134 462v800h144v-744q0 -122 15.5 -199t53.5 -122q12 -14 29.5 -29.5t43 -28t58 -20.5t74.5 -8q48 0 97.5 13t97.5 38v1100h143v-1026l67 -115q-64 -48 -123 -76t-111 -42.5t-95.5 -18.5t-75.5 -4q-128 0 -215 44t-141 138q-21 36 -33.5 73.5t-19 75.5t-8 75.5 t-1.5 75.5zM372 1563l94 94l217 -215l-94 -94z" />
<glyph unicode="&#xda;" horiz-adv-x="1043" d="M134 462v800h144v-744q0 -122 15.5 -199t53.5 -122q12 -14 29.5 -29.5t43 -28t58 -20.5t74.5 -8q48 0 97.5 13t97.5 38v1100h143v-1026l67 -115q-64 -48 -123 -76t-111 -42.5t-95.5 -18.5t-75.5 -4q-128 0 -215 44t-141 138q-21 36 -33.5 73.5t-19 75.5t-8 75.5 t-1.5 75.5zM374 1442l217 215l94 -94l-217 -215z" />
<glyph unicode="&#xdb;" horiz-adv-x="1043" d="M134 462v800h144v-744q0 -122 15.5 -199t53.5 -122q12 -14 29.5 -29.5t43 -28t58 -20.5t74.5 -8q48 0 97.5 13t97.5 38v1100h143v-1026l67 -115q-64 -48 -123 -76t-111 -42.5t-95.5 -18.5t-75.5 -4q-128 0 -215 44t-141 138q-21 36 -33.5 73.5t-19 75.5t-8 75.5 t-1.5 75.5zM235 1444l213 213h131l213 -213l-94 -94l-185 185l-184 -185z" />
<glyph unicode="&#xdc;" horiz-adv-x="1043" d="M134 462v800h144v-744q0 -122 15.5 -199t53.5 -122q12 -14 29.5 -29.5t43 -28t58 -20.5t74.5 -8q48 0 97.5 13t97.5 38v1100h143v-1026l67 -115q-64 -48 -123 -76t-111 -42.5t-95.5 -18.5t-75.5 -4q-128 0 -215 44t-141 138q-21 36 -33.5 73.5t-19 75.5t-8 75.5 t-1.5 75.5zM299 1424v154h147v-154h-147zM569 1424v154h148v-154h-148z" />
<glyph unicode="&#xdd;" horiz-adv-x="831" d="M47 1260l143 22l17 -111q13 -83 23.5 -138.5t21 -92.5t21.5 -59t24 -37q27 -32 60 -41.5t59 -9.5t58.5 9.5t59.5 41.5q13 15 23.5 37t21 59t21.5 93t24 138l17 111l143 -22q-17 -113 -32 -195.5t-30.5 -142.5t-34.5 -101.5t-44 -70.5q-40 -47 -82.5 -66t-73.5 -25v-659 h-143v659q-32 6 -74 25t-82 66q-25 29 -44 70.5t-34.5 101.5t-30.5 142.5t-32 195.5zM291 1442l217 215l94 -94l-217 -215z" />
<glyph unicode="&#xde;" horiz-adv-x="897" d="M144 0v1262h143v-283q43 8 85 12t77 4q85 0 157 -26t117 -72q35 -36 54 -75.5t27.5 -79.5t9.5 -80t1 -78v-209h-528v-375h-143zM287 506h389v76q0 22 -1 48t-6.5 54t-17 56.5t-32.5 54.5q-22 24 -46 38t-47 20.5t-45 8.5t-40 2q-41 0 -84.5 -7t-69.5 -17v-334z" />
<glyph unicode="&#xdf;" horiz-adv-x="1181" d="M45 795v127h174q0 83 25 159t77.5 133.5t133.5 92t192 34.5q127 0 210 -37.5t132 -101.5t68.5 -150.5t19.5 -183.5v-73h-280q-71 0 -114.5 -25.5t-43.5 -89.5q0 -26 9 -46t24.5 -35.5t37 -28.5t46.5 -25l137 -66q87 -43 135.5 -99.5t48.5 -137.5v-47l68 -84 q-42 -41 -88 -66.5t-92.5 -40t-92.5 -19.5t-88 -5q-86 0 -154 14.5t-116 36.5v131q27 -12 54.5 -23t59 -19.5t67.5 -13t81 -4.5q54 0 99 12t71 33v41q0 31 -5.5 55.5t-19 46t-37.5 40.5t-61 39l-155 77q-32 16 -60 36t-49 48t-33 64.5t-12 85.5q0 54 19.5 99t56 76.5t89 49 t118.5 17.5h149q0 64 -19 117.5t-56.5 92.5t-93.5 60.5t-130 21.5t-130 -22t-93 -61t-55.5 -93t-18.5 -118v-940h-131v815h-174z" />
<glyph unicode="&#xe0;" d="M63 268q0 103 43.5 169t115 103.5t163.5 52t190 15.5q-5 67 -40.5 107t-88.5 61t-115.5 28t-121.5 9l10 129q57 0 115.5 -6t112.5 -21t101.5 -41t82.5 -66t55 -95t20 -129v-410l55 -94q-96 -54 -187.5 -77t-170.5 -23q-50 0 -90 6.5t-71.5 18t-55 26.5t-41.5 32 q-34 35 -58 87t-24 118zM202 283q0 -58 20 -93.5t51 -55t66.5 -26t67.5 -6.5q51 0 91 10t77 25v348q-33 0 -73 -2t-81.5 -9t-81 -20.5t-70 -35.5t-49 -55.5t-18.5 -79.5zM247 1247l94 94l217 -215l-94 -94z" />
<glyph unicode="&#xe1;" d="M63 268q0 103 43.5 169t115 103.5t163.5 52t190 15.5q-5 67 -40.5 107t-88.5 61t-115.5 28t-121.5 9l10 129q57 0 115.5 -6t112.5 -21t101.5 -41t82.5 -66t55 -95t20 -129v-410l55 -94q-96 -54 -187.5 -77t-170.5 -23q-50 0 -90 6.5t-71.5 18t-55 26.5t-41.5 32 q-34 35 -58 87t-24 118zM202 283q0 -58 20 -93.5t51 -55t66.5 -26t67.5 -6.5q51 0 91 10t77 25v348q-33 0 -73 -2t-81.5 -9t-81 -20.5t-70 -35.5t-49 -55.5t-18.5 -79.5zM306 1126l217 215l94 -94l-217 -215z" />
<glyph unicode="&#xe2;" d="M63 268q0 103 43.5 169t115 103.5t163.5 52t190 15.5q-5 67 -40.5 107t-88.5 61t-115.5 28t-121.5 9l10 129q57 0 115.5 -6t112.5 -21t101.5 -41t82.5 -66t55 -95t20 -129v-410l55 -94q-96 -54 -187.5 -77t-170.5 -23q-50 0 -90 6.5t-71.5 18t-55 26.5t-41.5 32 q-34 35 -58 87t-24 118zM135 1128l213 213h131l213 -213l-94 -94l-185 185l-184 -185zM202 283q0 -58 20 -93.5t51 -55t66.5 -26t67.5 -6.5q51 0 91 10t77 25v348q-33 0 -73 -2t-81.5 -9t-81 -20.5t-70 -35.5t-49 -55.5t-18.5 -79.5z" />
<glyph unicode="&#xe3;" d="M63 268q0 103 43.5 169t115 103.5t163.5 52t190 15.5q-5 67 -40.5 107t-88.5 61t-115.5 28t-121.5 9l10 129q57 0 115.5 -6t112.5 -21t101.5 -41t82.5 -66t55 -95t20 -129v-410l55 -94q-96 -54 -187.5 -77t-170.5 -23q-50 0 -90 6.5t-71.5 18t-55 26.5t-41.5 32 q-34 35 -58 87t-24 118zM114 1139q54 72 118 120.5t136 73.5l127 -125q24 10 43 25.5t35 33.5t28 36.5t21 33.5l90 -84q-51 -65 -112.5 -116.5t-141.5 -77.5l-127 125q-24 -11 -43 -26t-35 -32.5t-28 -36t-21 -34.5zM202 283q0 -58 20 -93.5t51 -55t66.5 -26t67.5 -6.5 q51 0 91 10t77 25v348q-33 0 -73 -2t-81.5 -9t-81 -20.5t-70 -35.5t-49 -55.5t-18.5 -79.5z" />
<glyph unicode="&#xe4;" d="M63 268q0 103 43.5 169t115 103.5t163.5 52t190 15.5q-5 67 -40.5 107t-88.5 61t-115.5 28t-121.5 9l10 129q57 0 115.5 -6t112.5 -21t101.5 -41t82.5 -66t55 -95t20 -129v-410l55 -94q-96 -54 -187.5 -77t-170.5 -23q-50 0 -90 6.5t-71.5 18t-55 26.5t-41.5 32 q-34 35 -58 87t-24 118zM194 1108v154h147v-154h-147zM202 283q0 -58 20 -93.5t51 -55t66.5 -26t67.5 -6.5q51 0 91 10t77 25v348q-33 0 -73 -2t-81.5 -9t-81 -20.5t-70 -35.5t-49 -55.5t-18.5 -79.5zM464 1108v154h148v-154h-148z" />
<glyph unicode="&#xe5;" d="M63 268q0 103 43.5 169t115 103.5t163.5 52t190 15.5q-5 67 -40.5 107t-88.5 61t-115.5 28t-121.5 9l10 129q57 0 115.5 -6t112.5 -21t101.5 -41t82.5 -66t55 -95t20 -129v-410l55 -94q-96 -54 -187.5 -77t-170.5 -23q-50 0 -90 6.5t-71.5 18t-55 26.5t-41.5 32 q-34 35 -58 87t-24 118zM202 283q0 -58 20 -93.5t51 -55t66.5 -26t67.5 -6.5q51 0 91 10t77 25v348q-33 0 -73 -2t-81.5 -9t-81 -20.5t-70 -35.5t-49 -55.5t-18.5 -79.5zM212 1180q0 90 48 136t142 46t142.5 -46t48.5 -136q0 -91 -48.5 -138t-142.5 -47t-142 47t-48 138z M327 1180q0 -32 17.5 -51t57.5 -19q42 0 59 19t17 51q0 31 -17 50t-59 19q-40 0 -57.5 -19t-17.5 -50z" />
<glyph unicode="&#xe6;" horiz-adv-x="1277" d="M61 252q0 98 43.5 160t115 97t163.5 48.5t190 15.5q-3 52 -20.5 90t-45 64.5t-63.5 42.5t-75.5 25.5t-81 13t-80.5 4.5l10 129q57 0 114.5 -6t111.5 -21t100.5 -40.5t80.5 -63.5q27 46 59 72t65.5 39t66 16.5t59.5 3.5q25 0 53 -2.5t56.5 -11.5t57.5 -27t56 -49 q31 -36 47 -78.5t23.5 -85t8.5 -80.5t1 -65v-92h-473v-295q45 -32 97.5 -43t97.5 -11q83 0 149 19.5t129 64.5v-137q-60 -37 -128.5 -53t-149.5 -16q-78 0 -137.5 11t-110.5 36q-66 -25 -129.5 -36t-120.5 -11q-100 0 -162 23.5t-96 55.5t-58 81t-24 112zM200 266 q0 -52 20 -84t51 -50t66.5 -24t67.5 -6q51 0 91 8.5t77 22.5v318q-33 0 -73 -2t-81.5 -8.5t-81 -18.5t-70 -32.5t-49 -51t-18.5 -72.5zM704 573h342q0 20 -0.5 44t-4 48.5t-10.5 48t-20 42.5q-7 9 -18 20t-27.5 20.5t-38.5 16t-51 6.5t-51.5 -6.5t-39.5 -16t-28.5 -20.5 t-17.5 -20q-21 -30 -28 -69.5t-7 -74.5v-39z" />
<glyph unicode="&#xe7;" horiz-adv-x="732" d="M42 125l70 84v334q0 28 0.5 66t8 79.5t26 84t53.5 79.5q30 31 63.5 49t68 27t67.5 11.5t61 2.5q54 0 101.5 -8t92.5 -21l-34 -118q-39 11 -83 17.5t-81 6.5t-65 -7t-48.5 -17.5t-34 -22.5t-20.5 -22q-17 -22 -26 -49t-13.5 -54.5t-5 -54.5t-0.5 -49v-387q51 -28 102 -41 t111 -13q57 0 107.5 10.5t101.5 34.5v-129q-51 -20 -101 -29t-110 -9q-10 0 -17.5 1t-15.5 1v-43h8q85 0 132.5 -35.5t47.5 -110.5q0 -41 -17 -69.5t-45 -45.5t-64 -24.5t-74 -7.5q-60 0 -110.5 11t-88.5 28v110q51 -21 101 -35t98 -14q29 0 52 9.5t23 37.5q0 26 -19.5 37.5 t-59.5 11.5h-107v156q-46 10 -85 25t-71 32.5t-57 35.5t-43 34z" />
<glyph unicode="&#xe8;" horiz-adv-x="847" d="M44 125l70 84v334v35q0 29 2 63.5t9.5 71t23.5 72t44 67.5q28 31 58.5 49t61.5 27t60.5 11.5t55.5 2.5q25 0 55 -2.5t61 -11.5t61.5 -27t57.5 -49q32 -37 49 -79.5t24.5 -84t8 -79.5t0.5 -66v-119h-501v-268q48 -32 103 -43t103 -11q88 0 158.5 19.5t136.5 64.5v-137 q-63 -37 -135 -53t-157 -16q-131 0 -230 36.5t-180 108.5zM245 547h358q0 22 -0.5 48.5t-4 53.5t-11 53.5t-21.5 47.5q-7 10 -18.5 22t-28.5 22.5t-41 17.5t-55 7q-30 0 -53.5 -7t-41 -17.5t-29 -22.5t-18.5 -22q-14 -22 -21.5 -48t-10.5 -53.5t-3.5 -53.5t-0.5 -48z M266 1247l94 94l217 -215l-94 -94z" />
<glyph unicode="&#xe9;" horiz-adv-x="847" d="M44 125l70 84v334v35q0 29 2 63.5t9.5 71t23.5 72t44 67.5q28 31 58.5 49t61.5 27t60.5 11.5t55.5 2.5q25 0 55 -2.5t61 -11.5t61.5 -27t57.5 -49q32 -37 49 -79.5t24.5 -84t8 -79.5t0.5 -66v-119h-501v-268q48 -32 103 -43t103 -11q88 0 158.5 19.5t136.5 64.5v-137 q-63 -37 -135 -53t-157 -16q-131 0 -230 36.5t-180 108.5zM245 547h358q0 22 -0.5 48.5t-4 53.5t-11 53.5t-21.5 47.5q-7 10 -18.5 22t-28.5 22.5t-41 17.5t-55 7q-30 0 -53.5 -7t-41 -17.5t-29 -22.5t-18.5 -22q-14 -22 -21.5 -48t-10.5 -53.5t-3.5 -53.5t-0.5 -48z M289 1126l217 215l94 -94l-217 -215z" />
<glyph unicode="&#xea;" horiz-adv-x="847" d="M44 125l70 84v334v35q0 29 2 63.5t9.5 71t23.5 72t44 67.5q28 31 58.5 49t61.5 27t60.5 11.5t55.5 2.5q25 0 55 -2.5t61 -11.5t61.5 -27t57.5 -49q32 -37 49 -79.5t24.5 -84t8 -79.5t0.5 -66v-119h-501v-268q48 -32 103 -43t103 -11q88 0 158.5 19.5t136.5 64.5v-137 q-63 -37 -135 -53t-157 -16q-131 0 -230 36.5t-180 108.5zM144 1128l213 213h131l213 -213l-94 -94l-185 185l-184 -185zM245 547h358q0 22 -0.5 48.5t-4 53.5t-11 53.5t-21.5 47.5q-7 10 -18.5 22t-28.5 22.5t-41 17.5t-55 7q-30 0 -53.5 -7t-41 -17.5t-29 -22.5t-18.5 -22 q-14 -22 -21.5 -48t-10.5 -53.5t-3.5 -53.5t-0.5 -48z" />
<glyph unicode="&#xeb;" horiz-adv-x="847" d="M44 125l70 84v334v35q0 29 2 63.5t9.5 71t23.5 72t44 67.5q28 31 58.5 49t61.5 27t60.5 11.5t55.5 2.5q25 0 55 -2.5t61 -11.5t61.5 -27t57.5 -49q32 -37 49 -79.5t24.5 -84t8 -79.5t0.5 -66v-119h-501v-268q48 -32 103 -43t103 -11q88 0 158.5 19.5t136.5 64.5v-137 q-63 -37 -135 -53t-157 -16q-131 0 -230 36.5t-180 108.5zM225 1108v154h147v-154h-147zM245 547h358q0 22 -0.5 48.5t-4 53.5t-11 53.5t-21.5 47.5q-7 10 -18.5 22t-28.5 22.5t-41 17.5t-55 7q-30 0 -53.5 -7t-41 -17.5t-29 -22.5t-18.5 -22q-14 -22 -21.5 -48t-10.5 -53.5 t-3.5 -53.5t-0.5 -48zM495 1108v154h148v-154h-148z" />
<glyph unicode="&#xec;" horiz-adv-x="382" d="M-10 1247l94 94l217 -215l-94 -94zM87 922h172v-922h-131v793z" />
<glyph unicode="&#xed;" horiz-adv-x="382" d="M80 1126l217 215l94 -94l-217 -215zM87 922h172v-922h-131v793z" />
<glyph unicode="&#xee;" horiz-adv-x="383" d="M-82 1128l213 213h131l213 -213l-94 -94l-185 185l-184 -185zM87 922h172v-922h-131v793z" />
<glyph unicode="&#xef;" horiz-adv-x="383" d="M-15 1108v154h147v-154h-147zM87 922h172v-922h-131v793zM255 1108v154h148v-154h-148z" />
<glyph unicode="&#xf0;" horiz-adv-x="886" d="M111 379v366q24 17 56.5 34t73 30t90.5 21t110 8q102 0 194 -29q0 72 -16 128t-45 99l-105 -104l-94 94l107 107q-39 31 -84.5 56t-96.5 50l47 104q69 -23 125.5 -52t104.5 -64l115 114l92 -92l-113 -112q48 -63 73 -138.5t25 -169.5v-450q0 -29 -0.5 -67t-8 -79.5 t-24.5 -83.5t-51 -79q-28 -31 -60 -49t-64.5 -27t-63.5 -11.5t-57 -2.5t-57.5 2.5t-64 11.5t-64.5 27t-60 49q-34 37 -51 79t-24.5 83t-8 79.5t-0.5 67.5zM242 375q0 -23 0.5 -49.5t4.5 -53.5t12.5 -52.5t23.5 -47.5q7 -11 19.5 -23t31.5 -22.5t45.5 -17.5t61.5 -7t60.5 7 t44.5 17.5t31.5 23t20.5 22.5q15 21 23.5 47t12.5 53t4.5 53.5t0.5 49.5v291q-46 29 -99.5 39t-98.5 10t-99 -10t-100 -39v-291z" />
<glyph unicode="&#xf1;" horiz-adv-x="904" d="M81 848q27 16 62.5 33t80 30.5t97 22t114.5 8.5q39 0 84 -5.5t88.5 -22.5t81.5 -49t64 -85q10 -23 17 -52t11.5 -71t6.5 -100.5t2 -140.5v-416h-131v420q0 67 -1.5 117.5t-5.5 88t-12 64t-20 45.5q-9 14 -24 29t-38.5 27t-56 20t-76.5 8q-49 0 -89.5 -8.5t-74.5 -22.5 v-788h-131v748zM156 1139q54 72 118 120.5t136 73.5l127 -125q24 10 43 25.5t35 33.5t28 36.5t21 33.5l90 -84q-51 -65 -112.5 -116.5t-141.5 -77.5l-127 125q-24 -11 -43 -26t-35 -32.5t-28 -36t-21 -34.5z" />
<glyph unicode="&#xf2;" horiz-adv-x="883" d="M111 72v471q0 28 0.5 66.5t8 80t24.5 83.5t51 79q28 31 60 49t64.5 27t64 11.5t57.5 2.5t57 -2.5t63 -11.5t64 -27t61 -49q34 -37 51 -79t24.5 -84t8 -80t0.5 -66v-334l70 -84q-82 -72 -180 -108.5t-219 -36.5q-60 0 -110 8t-90.5 21t-73 29.5t-56.5 33.5zM242 156 q46 -32 100 -43t99 -11t98.5 11t99.5 43v391q0 22 -1 48.5t-4.5 53.5t-12 53t-23.5 48q-8 10 -20.5 22t-31 22.5t-44.5 17.5t-61 7t-61 -7t-45.5 -17.5t-32 -22.5t-19.5 -22q-15 -22 -23.5 -48t-12 -53t-4.5 -53.5t-1 -48.5v-391zM300 1247l94 94l217 -215l-94 -94z" />
<glyph unicode="&#xf3;" horiz-adv-x="883" d="M111 72v471q0 28 0.5 66.5t8 80t24.5 83.5t51 79q28 31 60 49t64.5 27t64 11.5t57.5 2.5t57 -2.5t63 -11.5t64 -27t61 -49q34 -37 51 -79t24.5 -84t8 -80t0.5 -66v-334l70 -84q-82 -72 -180 -108.5t-219 -36.5q-60 0 -110 8t-90.5 21t-73 29.5t-56.5 33.5zM242 156 q46 -32 100 -43t99 -11t98.5 11t99.5 43v391q0 22 -1 48.5t-4.5 53.5t-12 53t-23.5 48q-8 10 -20.5 22t-31 22.5t-44.5 17.5t-61 7t-61 -7t-45.5 -17.5t-32 -22.5t-19.5 -22q-15 -22 -23.5 -48t-12 -53t-4.5 -53.5t-1 -48.5v-391zM299 1126l217 215l94 -94l-217 -215z" />
<glyph unicode="&#xf4;" horiz-adv-x="883" d="M111 72v471q0 28 0.5 66.5t8 80t24.5 83.5t51 79q28 31 60 49t64.5 27t64 11.5t57.5 2.5t57 -2.5t63 -11.5t64 -27t61 -49q34 -37 51 -79t24.5 -84t8 -80t0.5 -66v-334l70 -84q-82 -72 -180 -108.5t-219 -36.5q-60 0 -110 8t-90.5 21t-73 29.5t-56.5 33.5zM177 1128 l213 213h131l213 -213l-94 -94l-185 185l-184 -185zM242 156q46 -32 100 -43t99 -11t98.5 11t99.5 43v391q0 22 -1 48.5t-4.5 53.5t-12 53t-23.5 48q-8 10 -20.5 22t-31 22.5t-44.5 17.5t-61 7t-61 -7t-45.5 -17.5t-32 -22.5t-19.5 -22q-15 -22 -23.5 -48t-12 -53 t-4.5 -53.5t-1 -48.5v-391z" />
<glyph unicode="&#xf5;" horiz-adv-x="883" d="M111 72v471q0 28 0.5 66.5t8 80t24.5 83.5t51 79q28 31 60 49t64.5 27t64 11.5t57.5 2.5t57 -2.5t63 -11.5t64 -27t61 -49q34 -37 51 -79t24.5 -84t8 -80t0.5 -66v-334l70 -84q-82 -72 -180 -108.5t-219 -36.5q-60 0 -110 8t-90.5 21t-73 29.5t-56.5 33.5zM157 1139 q54 72 118 120.5t136 73.5l127 -125q24 10 43 25.5t35 33.5t28 36.5t21 33.5l90 -84q-51 -65 -112.5 -116.5t-141.5 -77.5l-127 125q-24 -11 -43 -26t-35 -32.5t-28 -36t-21 -34.5zM242 156q46 -32 100 -43t99 -11t98.5 11t99.5 43v391q0 22 -1 48.5t-4.5 53.5t-12 53 t-23.5 48q-8 10 -20.5 22t-31 22.5t-44.5 17.5t-61 7t-61 -7t-45.5 -17.5t-32 -22.5t-19.5 -22q-15 -22 -23.5 -48t-12 -53t-4.5 -53.5t-1 -48.5v-391z" />
<glyph unicode="&#xf6;" horiz-adv-x="883" d="M111 72v471q0 28 0.5 66.5t8 80t24.5 83.5t51 79q28 31 60 49t64.5 27t64 11.5t57.5 2.5t57 -2.5t63 -11.5t64 -27t61 -49q34 -37 51 -79t24.5 -84t8 -80t0.5 -66v-334l70 -84q-82 -72 -180 -108.5t-219 -36.5q-60 0 -110 8t-90.5 21t-73 29.5t-56.5 33.5zM242 156 q46 -32 100 -43t99 -11t98.5 11t99.5 43v391q0 22 -1 48.5t-4.5 53.5t-12 53t-23.5 48q-8 10 -20.5 22t-31 22.5t-44.5 17.5t-61 7t-61 -7t-45.5 -17.5t-32 -22.5t-19.5 -22q-15 -22 -23.5 -48t-12 -53t-4.5 -53.5t-1 -48.5v-391zM248 1108v154h147v-154h-147zM518 1108v154 h148v-154h-148z" />
<glyph unicode="&#xf7;" horiz-adv-x="868" d="M87 662v131h694v-131h-694zM349 350v172h172v-172h-172zM349 932v172h172v-172h-172z" />
<glyph unicode="&#xf8;" horiz-adv-x="915" d="M-4 -84l119 156v471q0 28 0.5 66.5t8 80t24.5 83.5t51 79q28 31 60 49t64.5 27t64 11.5t57.5 2.5t57 -2.5t63 -11.5t64 -27t61 -49l13 -14l104 135l101 -82l-146 -189q8 -32 10 -63t2 -57v-39v-334l70 -84q-82 -72 -180 -108.5t-219 -36.5q-66 0 -117.5 9t-93.5 23 l-138 -178zM246 242l371 483l-15 25q-8 10 -20.5 22t-31 22.5t-44.5 17.5t-61 7t-61 -7t-45.5 -17.5t-32 -22.5t-19.5 -22q-15 -22 -23.5 -48t-12 -53t-4.5 -53.5t-1 -48.5v-305zM316 121q34 -11 67 -15t62 -4q45 0 98.5 11t99.5 43v391z" />
<glyph unicode="&#xf9;" horiz-adv-x="905" d="M115 506v416h131v-420q0 -68 1.5 -119t5.5 -88.5t11.5 -63.5t20.5 -45q9 -14 24.5 -29t38.5 -27t55.5 -20t76.5 -8q49 0 89.5 8.5t74.5 22.5v789h131v-748l49 -100q-27 -16 -62.5 -33t-80 -30.5t-97.5 -22t-114 -8.5q-39 0 -84 5.5t-89 22.5t-82 48.5t-63 84.5 q-11 23 -18 52t-11.5 71.5t-6 101t-1.5 140.5zM281 1247l94 94l217 -215l-94 -94z" />
<glyph unicode="&#xfa;" horiz-adv-x="905" d="M115 506v416h131v-420q0 -68 1.5 -119t5.5 -88.5t11.5 -63.5t20.5 -45q9 -14 24.5 -29t38.5 -27t55.5 -20t76.5 -8q49 0 89.5 8.5t74.5 22.5v789h131v-748l49 -100q-27 -16 -62.5 -33t-80 -30.5t-97.5 -22t-114 -8.5q-39 0 -84 5.5t-89 22.5t-82 48.5t-63 84.5 q-11 23 -18 52t-11.5 71.5t-6 101t-1.5 140.5zM303 1126l217 215l94 -94l-217 -215z" />
<glyph unicode="&#xfb;" horiz-adv-x="905" d="M115 506v416h131v-420q0 -68 1.5 -119t5.5 -88.5t11.5 -63.5t20.5 -45q9 -14 24.5 -29t38.5 -27t55.5 -20t76.5 -8q49 0 89.5 8.5t74.5 22.5v789h131v-748l49 -100q-27 -16 -62.5 -33t-80 -30.5t-97.5 -22t-114 -8.5q-39 0 -84 5.5t-89 22.5t-82 48.5t-63 84.5 q-11 23 -18 52t-11.5 71.5t-6 101t-1.5 140.5zM159 1128l213 213h131l213 -213l-94 -94l-185 185l-184 -185z" />
<glyph unicode="&#xfc;" horiz-adv-x="905" d="M115 506v416h131v-420q0 -68 1.5 -119t5.5 -88.5t11.5 -63.5t20.5 -45q9 -14 24.5 -29t38.5 -27t55.5 -20t76.5 -8q49 0 89.5 8.5t74.5 22.5v789h131v-748l49 -100q-27 -16 -62.5 -33t-80 -30.5t-97.5 -22t-114 -8.5q-39 0 -84 5.5t-89 22.5t-82 48.5t-63 84.5 q-11 23 -18 52t-11.5 71.5t-6 101t-1.5 140.5zM229 1108v154h147v-154h-147zM499 1108v154h148v-154h-148z" />
<glyph unicode="&#xfd;" horiz-adv-x="869" d="M45 915l129 27l153 -655q9 -36 20.5 -69.5t28.5 -59t42 -41t63 -15.5h9t9 2l195 838l129 -27l-315 -1348l-128 30l89 383q-109 4 -173 71.5t-96 204.5zM318 1126l217 215l94 -94l-217 -215z" />
<glyph unicode="&#xfe;" horiz-adv-x="890" d="M82 1341h172v-417q73 18 158 18q106 0 179.5 -40.5t119.5 -107.5t67 -154t21 -179t-23.5 -179t-71 -154t-118.5 -107.5t-166 -40.5q-48 0 -85.5 6t-80.5 18v-436h-131v1644zM254 135q22 -9 59 -21t88 -12q75 0 125.5 33t81 85t43 115.5t12.5 125.5q0 61 -11 125 t-40.5 115.5t-80 84.5t-128.5 33q-38 0 -78 -8.5t-71 -24.5v-651z" />
<glyph unicode="&#xff;" horiz-adv-x="869" d="M45 915l129 27l153 -655q9 -36 20.5 -69.5t28.5 -59t42 -41t63 -15.5h9t9 2l195 838l129 -27l-315 -1348l-128 30l89 383q-109 4 -173 71.5t-96 204.5zM223 1108v154h147v-154h-147zM493 1108v154h148v-154h-148z" />
<glyph unicode="&#x152;" horiz-adv-x="1313" d="M128 94l2 694q0 97 18.5 183.5t62.5 151t116.5 102t181.5 37.5h727v-132h-397v-337h266v-131h-266v-447q46 -30 91.5 -50t94 -32t100.5 -17t111 -5l-10 -131q-123 0 -224.5 24.5t-189.5 69.5q-62 -38 -142.5 -66t-185.5 -28q-69 0 -125.5 11.5t-101 28.5t-76.5 37t-53 37 zM271 174q42 -32 93.5 -47.5t117.5 -15.5q57 0 111 14t102 49v956h-186q-75 0 -121.5 -30t-72.5 -78.5t-35 -110t-9 -123.5v-614z" />
<glyph unicode="&#x153;" horiz-adv-x="1372" d="M111 72v471q0 29 0.5 67t8 79.5t24.5 83.5t51 79q28 31 60.5 49t65 27t63.5 11.5t57 2.5q34 0 67.5 -5t66.5 -18t65 -34t63 -54q60 65 123 88t129 23q25 0 54.5 -2.5t60 -11.5t61 -27t57.5 -49q32 -37 49 -79.5t24.5 -84t8 -79.5t0.5 -66v-119h-500v-268 q48 -32 103.5 -43t101.5 -11q89 0 159 20t136 64v-137q-63 -37 -134.5 -53t-156.5 -16q-81 0 -147.5 14.5t-126.5 40.5q-60 -26 -124.5 -40.5t-139.5 -14.5q-60 0 -110 8t-90.5 21t-73 29.5t-56.5 33.5zM242 156q46 -32 100 -43t99 -11t98.5 11t99.5 43v424q-1 21 -3 43.5 t-6 45t-11.5 43.5t-20.5 38q-8 10 -20.5 22t-31.5 22.5t-45 17.5t-60 7q-35 0 -61 -7t-45.5 -17.5t-32 -22.5t-19.5 -22q-15 -22 -23.5 -48t-12 -53t-4.5 -53.5t-1 -48.5v-391zM770 547h359q0 21 -0.5 47.5t-4 54t-11 54t-21.5 47.5q-7 10 -18.5 22t-28.5 22.5t-41 17.5 t-55 7t-54.5 -7t-41 -17.5t-29 -22.5t-19.5 -22q-13 -22 -20 -48t-10.5 -53t-4 -53.5t-0.5 -48.5z" />
<glyph unicode="&#x2c6;" horiz-adv-x="721" d="M82 1128l213 213h131l213 -213l-94 -94l-185 185l-184 -185z" />
<glyph unicode="&#x2dc;" horiz-adv-x="762" d="M82 1139q54 72 118 120.5t136 73.5l127 -125q24 10 43 25.5t35 33.5t28 36.5t21 33.5l90 -84q-51 -65 -112.5 -116.5t-141.5 -77.5l-127 125q-24 -11 -43 -26t-35 -32.5t-28 -36t-21 -34.5z" />
<glyph unicode="&#x2000;" horiz-adv-x="849" />
<glyph unicode="&#x2001;" horiz-adv-x="1699" />
<glyph unicode="&#x2002;" horiz-adv-x="849" />
<glyph unicode="&#x2003;" horiz-adv-x="1699" />
<glyph unicode="&#x2004;" horiz-adv-x="566" />
<glyph unicode="&#x2005;" horiz-adv-x="424" />
<glyph unicode="&#x2006;" horiz-adv-x="283" />
<glyph unicode="&#x2007;" horiz-adv-x="283" />
<glyph unicode="&#x2008;" horiz-adv-x="212" />
<glyph unicode="&#x2009;" horiz-adv-x="339" />
<glyph unicode="&#x200a;" horiz-adv-x="94" />
<glyph unicode="&#x2010;" horiz-adv-x="804" d="M113 434v144h578v-144h-578z" />
<glyph unicode="&#x2011;" horiz-adv-x="804" d="M113 434v144h578v-144h-578z" />
<glyph unicode="&#x2012;" horiz-adv-x="804" d="M113 434v144h578v-144h-578z" />
<glyph unicode="&#x2013;" horiz-adv-x="882" d="M111 444v134h660v-134h-660z" />
<glyph unicode="&#x2014;" horiz-adv-x="1188" d="M111 444v134h965v-134h-965z" />
<glyph unicode="&#x2018;" horiz-adv-x="356" d="M91 961v172q0 78 38.5 128.5t106.5 79.5l47 -86q-13 -6 -29 -14.5t-29.5 -21.5t-23 -31t-9.5 -42v-6.5t1 -6.5l84 -172h-186z" />
<glyph unicode="&#x2019;" horiz-adv-x="330" d="M63 1047q13 6 29 14.5t29.5 21.5t23 31t9.5 42q0 3 -0.5 6t-0.5 7l-84 172h186v-172q0 -78 -38.5 -128.5t-106.5 -79.5z" />
<glyph unicode="&#x201a;" horiz-adv-x="355" d="M67 -123q13 6 29 15t30 22t23 31t9 42q0 3 -0.5 6.5t-0.5 6.5l-84 172h186v-172q0 -78 -38.5 -129t-106.5 -80z" />
<glyph unicode="&#x201c;" horiz-adv-x="642" d="M91 961v172q0 78 38.5 128.5t106.5 79.5l47 -86q-13 -6 -29 -14.5t-29.5 -21.5t-23 -31t-9.5 -42v-6.5t1 -6.5l84 -172h-186zM378 961v172q0 78 38.5 128.5t106.5 79.5l47 -86q-13 -6 -29 -14.5t-29.5 -21.5t-23 -31t-9.5 -42v-6.5t1 -6.5l84 -172h-186z" />
<glyph unicode="&#x201d;" horiz-adv-x="617" d="M63 1047q13 6 29 14.5t29.5 21.5t23 31t9.5 42q0 3 -0.5 6t-0.5 7l-84 172h186v-172q0 -78 -38.5 -128.5t-106.5 -79.5zM350 1047q13 6 29 14.5t29.5 21.5t23 31t9.5 42q0 3 -0.5 6t-0.5 7l-84 172h186v-172q0 -78 -38.5 -128.5t-106.5 -79.5z" />
<glyph unicode="&#x201e;" horiz-adv-x="641" d="M67 -121q13 6 29 14.5t29.5 21.5t23 31t9.5 42q0 3 -0.5 6t-0.5 7l-84 172h186v-172q0 -78 -38.5 -128.5t-106.5 -79.5zM351 -121q13 6 29 14.5t29.5 21.5t23 31t9.5 42q0 3 -0.5 6t-0.5 7l-84 172h186v-172q0 -78 -38.5 -128.5t-106.5 -79.5z" />
<glyph unicode="&#x2022;" horiz-adv-x="636" d="M113 532v410h410v-410h-410z" />
<glyph unicode="&#x202f;" horiz-adv-x="339" />
<glyph unicode="&#x2039;" horiz-adv-x="542" d="M95 518v131l272 273l94 -95l-243 -243l243 -244l-94 -94z" />
<glyph unicode="&#x203a;" horiz-adv-x="543" d="M81 340l244 244l-244 243l95 95l272 -273v-131l-272 -272z" />
<glyph unicode="&#x205f;" horiz-adv-x="424" />
<glyph unicode="&#x20ac;" horiz-adv-x="924" d="M83 569l24 111h82v94h-106l24 111h86q7 84 30 157t68 126t115.5 83.5t173.5 30.5q74 0 131.5 -14t114.5 -45l-51 -121q-54 26 -101.5 37.5t-89.5 11.5q-68 0 -113.5 -20.5t-74 -56.5t-42.5 -84.5t-19 -104.5h415l-24 -111h-394v-94h373l-24 -111h-349v-395 q57 -35 114.5 -49t129.5 -14q34 0 63 3t55.5 9.5t53 18.5t56.5 30l59 -129q-54 -28 -127.5 -45.5t-167.5 -17.5q-37 0 -89.5 5.5t-113 22.5t-125 50t-125.5 87l74 95v329h-106z" />
<glyph unicode="&#x25fc;" horiz-adv-x="940" d="M0 0v940h940v-940h-940z" />
</font>
</defs>
</svg>
